<?xml version="1.0" encoding="UTF-8"?>
<svg id="Layer_1" xmlns="http://www.w3.org/2000/svg" version="1.1" viewBox="0 0 688.79 158.43">
  <!-- Generator: Adobe Illustrator 29.3.1, SVG Export Plug-In . SVG Version: 2.1.0 Build 151)  -->
  <defs>
    <style>
      .st0 {
        fill: #d8102f;
      }
    </style>
  </defs>
  <g>
    <path class="st0" d="M74.05,1.68c0,1.11.32,2.27.83,2.92l.88,1.02.28-1.53c.32-1.58-.42-3.76-1.39-4.08-.42-.09-.6.42-.6,1.67Z"/>
    <path class="st0" d="M84.3,2.51c-.79,1.02-.88,1.62-.65,4.27.14,1.72.46,3.62.65,4.27s.23-.14.09-1.72c-.23-2.46-.14-3.01.74-4.13.97-1.25,1.34-3.9.56-3.9-.23,0-.88.56-1.39,1.21Z"/>
    <path class="st0" d="M50.96,3.72c-.7.7-.7,1.99-.05,3.2.7,1.34,1.34.65,1.34-1.44,0-1.95-.46-2.6-1.3-1.76Z"/>
    <path class="st0" d="M69.41,3.81c0,1.3.6,2.18,1.9,2.88,1.3.65,1.34.65,1.34-.46,0-.7-.51-1.53-1.21-2.09-1.44-1.16-2.04-1.21-2.04-.32Z"/>
    <path class="st0" d="M78.69,4.51c-.65,1.25.09,3.48,1.07,3.2.83-.28.93-2.32.19-3.34-.65-.88-.7-.88-1.25.14Z"/>
    <path class="st0" d="M108.18,4.69c-.79.79-1.21,1.72-1.21,2.69v1.48l1.11-1.07c1.11-1.02,2.04-3.52,1.53-4.03-.14-.14-.79.28-1.44.93Z"/>
    <path class="st0" d="M93.3,4.65c-.51.28-1.21.83-1.48,1.21-.65.83-.83,2.88-.23,2.88.74,0,2.27-2.09,2.5-3.39.14-.7.23-1.25.19-1.25,0,0-.46.28-.97.56Z"/>
    <path class="st0" d="M96.77,5.02c0,.56.56,1.53,1.3,2.23l1.25,1.25.14-1.39c.14-.97-.14-1.58-.83-2.18-1.34-1.07-1.85-1.07-1.85.09Z"/>
    <path class="st0" d="M55.27,5.34c-.83.83-.79,1.76.37,5.47l.74,2.32-2.04-2.18c-1.16-1.21-2.09-1.95-2.09-1.62,0,.28.56,1.11,1.25,1.81,1.11,1.16,1.16,1.3.32,1.3-.46,0-1.58-.42-2.36-.93-.83-.51-1.53-.7-1.53-.46s.65.79,1.39,1.16c.79.42,1.3.93,1.16,1.11-.09.23.51.56,1.44.74,3.71.65,7.42,3.62,8.81,7,.93,2.18.83,2.27-.74.97-1.81-1.53-6.82-2.18-8.39-1.11l-1.02.74,1.3.32c.7.19,1.95.09,2.78-.23,2.5-.88,3.71-.65,5.24,1.07,1.39,1.58,1.58,2.23,2.23,6.31.56,3.85,1.95,6.72,4.27,8.9,1.21,1.11,2.6,2.27,3.11,2.55.51.32.83.65.7.79-.42.37-4.31-1.58-5.75-2.88l-1.34-1.25,1.02,1.72,1.07,1.76h-1.62c-.88,0-2.36-.32-3.34-.74-1.67-.7-3.94-.56-3.94.23,0,.74,2.41,1.44,4.17,1.16,3.71-.6,11.69,1.44,14.19,3.62,2.92,2.55,3.57,4.45,3.94,11.5.37,7,.7,8.39,2.69,11.5.74,1.21,1.76,3.06,2.27,4.17l.88,1.99,1.02-2.36c.56-1.3.93-2.64.79-2.92-.09-.32-.23-.19-.23.23-.09,1.53-.88.88-1.76-1.39-1.72-4.41-.51-8.58,2.6-9.04,1.02-.14.97-.19-.32-.28-2.55-.09-4.08,2.09-3.8,5.38.14,1.85-.79,1.16-1.39-1.02-1.11-4.03.19-8.21,3.66-11.59,2.18-2.09,3.34-5.1,3.25-8.53-.05-2.09-.05-2.04-.6.88-.28,1.67-1.11,3.99-1.81,5.19-1.34,2.36-2.69,3.15-1.53.93.93-1.85,1.67-6.21,1.67-10.2,0-6.35,1.39-19.2,2.32-21.24,1.3-3.01,2.36-3.85,4.5-3.62,2.09.28,3.57-.46,2.46-1.21-1.11-.7-2.41-.56-4.36.6-2.5,1.44-3.43,2.88-4.08,6.31l-.56,2.97-.6-2.27c-.32-1.25-.74-4.03-.93-6.17-.23-3.25-.37-3.71-.83-2.88-.28.56-.65.83-.83.7-.46-.46-.42.14.23,2.18.28,1.02.42,1.9.28,2.04-.32.37-7.28-6.86-8.86-9.18-1.25-1.81-1.3-1.85-.97-.56.56,2.46,1.58,3.99,4.68,7.05,3.15,3.06,3.66,4.36.97,2.32-2.09-1.53-4.54-2.78-4.54-2.23,0,.23.93.88,2.04,1.44,4.87,2.32,6.07,3.66,7.51,8.21.7,2.27.14,2.69-.74.6-.32-.79-1.02-1.72-1.58-2.09-1.67-1.21-1.76-.74-.14.83.83.83,1.76,2.41,2.09,3.43.7,2.27.74,9.78.05,8.11-.23-.56-.65-1.48-.88-2.09q-.46-1.02-.19.09c.23.83.14,1.07-.37.88-.46-.19-.37.32.42,1.85,1.53,2.97,1.48,7.37-.14,12.06-.7,1.95-1.48,4.59-1.81,5.89l-.6,2.32-.05-2.88c-.05-3.11.97-8.3,2.09-10.48.74-1.34.65-2.55-.37-5.1-.46-1.21-2.97-3.01-3.48-2.5-.37.42.88,1.99,2.18,2.74,1.9,1.11,2.23,3.15.79,5.61-.6,1.07-1.3,2.78-1.44,3.76l-.37,1.85-.88-1.99c-.46-1.11-.88-2.27-.88-2.6s-1.16-2.04-2.55-3.71c-1.39-1.72-2.55-2.92-2.55-2.69s1.07,1.72,2.32,3.29c1.3,1.58,2.32,3.01,2.32,3.15,0,.19-.79-.42-1.76-1.25-.97-.88-2.74-2.23-3.9-3.01-2.13-1.48-2.69-2.69-2.69-5.94,0-1.85,1.53-4.36,3.01-4.92.65-.23,1.72-.79,2.36-1.25,1.21-.74,1.21-.79.23-1.16-1.3-.46-3.29.46-3.29,1.53,0,.46-.42,1.11-.97,1.48-.51.37-1.21,1.48-1.53,2.41q-.6,1.67-.93.56c-.37-1.48.09-3.8,1.21-6.03.7-1.34,1.11-1.72,2.13-1.72,1.44,0,3.48-1.25,3.11-1.9-.51-.83-2.09-.42-3.62.97-1.9,1.62-2.18,1.72-2.18.46,0-1.81-1.3-4.17-2.27-4.17-1.3,0-1.21.74.19,1.67,1.58,1.02,1.81,2.41.97,5.33-.93,3.11-.93,6.12-.05,7.84.79,1.53.46,1.85-.56.56-4.08-5.19-4.87-13.22-1.72-17.76.65-.97,1.11-2.04,1.02-2.46-.32-1.44-1.81.51-2.64,3.48l-.88,2.97-.79-1.85c-.46-1.02-2.46-3.52-4.5-5.61l-3.66-3.76.32-3.11c.19-1.67.19-3.06.05-3.06s-.6.32-1.02.79Z"/>
    <path class="st0" d="M64.13,5.53c-.79,1.16-.97,3.06-.32,4.08.6.93,2.13-3.34,1.53-4.36-.37-.74-.51-.7-1.21.28Z"/>
    <path class="st0" d="M103.31,6.27c-.6,1.16-.28,3.06.65,3.85.88.7,1.21-1.72.51-3.48-.56-1.39-.6-1.39-1.16-.37Z"/>
    <path class="st0" d="M87.04,6.97c-.97,1.07-1.16,2.09-.51,3.06.28.51.6.32,1.39-.65.51-.65.97-1.39.97-1.62,0-.19.14-.65.28-1.07.42-1.11-1.02-.93-2.13.28Z"/>
    <path class="st0" d="M58.84,7.43c-.6.6-.74,2.78-.23,3.29.56.6,1.53-.7,1.53-2.04,0-1.48-.56-1.99-1.3-1.25Z"/>
    <path class="st0" d="M45.53,8.36c.37,1.21,1.48,2.23,2.41,2.23.65,0,.79-.83.23-1.72-.19-.28-.93-.79-1.62-1.02-1.25-.46-1.3-.46-1.02.51Z"/>
    <path class="st0" d="M67.56,8.73c.37.7,3.11,2.32,3.94,2.32.09,0-.51-.74-1.3-1.62-1.58-1.81-3.52-2.32-2.64-.7Z"/>
    <path class="st0" d="M71.73,8.36c0,.37.56.93,1.21,1.25,1.48.65,1.34-.23-.19-1.25-.88-.6-1.02-.6-1.02,0Z"/>
    <path class="st0" d="M94.92,8.59c-1.53.56-2.55,2.92-1.25,2.92.65,0,3.11-2.32,3.11-2.92,0-.37-.83-.37-1.85,0Z"/>
    <path class="st0" d="M108.92,9.33c-1.16,1.25-1.34,2.64-.32,2.64.65,0,2.55-2.5,2.55-3.39,0-.7-1.25-.28-2.23.74Z"/>
    <path class="st0" d="M122.6,8.54c-.6.6-.32,3.76.37,4.36.56.46.7.32.93-.6.6-2.32-.28-4.78-1.3-3.76Z"/>
    <path class="st0" d="M34.22,9.38c-1.48,1.81.46,8.63,2.64,9.41,1.72.6,3.62,1.53,4.68,2.32l1.11.79-.79-1.44c-.42-.83-.79-2.5-.79-3.71l-.05-2.23-.56,2.55c-.28,1.39-.7,2.32-.88,2.04-.14-.28-.93-.65-1.72-.79-.88-.19-1.72-.83-2.32-1.81-1.11-1.81-1.16-2.64-.23-4.36,1.3-2.5.42-4.64-1.11-2.78Z"/>
    <path class="st0" d="M101.23,10.35c3.25,4.31,6.45,13.12,6.4,17.62,0,3.66-.6,5.05-3.43,8.35-2.18,2.55-3.39,4.78-4.17,7.65-.28,1.16-.65,2.5-.79,3.01s.23.23.83-.65c1.58-2.27,3.71-3.39,7.05-3.62,2.64-.23,3.01-.14,4.41,1.02.83.7,1.48,1.07,1.48.83,0-.65-.65-1.39-1.81-1.99-1.07-.56-1.02-.6,1.39-1.58,2.74-1.07,4.27-2.88,5.1-5.98.56-2.09.19-4.68-.56-3.52-.23.32-.42,1.39-.42,2.27s-.42,2.27-.88,3.06c-1.07,1.76-4.87,3.66-8.11,4.13-2.04.28-2.27.23-1.72-.42.32-.37.97-.83,1.48-.97.83-.28,2.55-2.88,2.13-3.29-.37-.37-2.64,1.76-3.34,3.06-.56,1.11-4.36,4.17-5.19,4.17-.37,0,2.09-3.2,4.22-5.52,3.66-3.9,14.1-10.25,16.88-10.25.93,0,3.15-1.85,2.36-1.9-1.39-.14-2.41.14-3.94,1.07-.88.51-1.58.74-1.58.56,0-.23.88-1.62,1.95-3.11,1.81-2.6,1.9-2.97,1.85-5.8-.05-3.85-.79-4.68-.88-.97,0,1.58-.28,3.06-.56,3.34-.37.37-.51.14-.51-.74,0-2.09-1.21-4.41-2.74-5.15-1.53-.83-4.03-.97-4.45-.32-.23.42,1.02.74,3.94,1.11,1.02.14,1.85,2.13,1.85,4.45s-1.3,5.38-3.2,7.19l-1.34,1.3v-2.27c0-1.25-.32-2.97-.74-3.76s-.74-2.55-.74-3.9c0-2.88-.65-4.27-1.39-3.15-.65,1.02-.56,2.46.23,3.52,1.21,1.58.79,1.95-1.16.97-2.64-1.3-2.78-.7-.23.83,2.97,1.72,3.85,4.64,2.32,7.6-.6,1.25-4.41,4.87-4.73,4.54-.05-.09.09-.88.32-1.76.65-2.27.56-4.92-.28-7.84-2.46-8.67-2.5-8.9-2.09-11.55.51-3.2.28-3.62-.42-.88-.32,1.07-.65,2.27-.79,2.64-.14.46-.46.28-1.02-.7-.46-.74-1.67-2.09-2.64-2.97l-1.76-1.62,1.39,1.85Z"/>
    <path class="st0" d="M114.12,9.47c.14.42.28.88.28,1.11,0,.51,1.34,1.85,1.9,1.85.7,0,.46-2.18-.32-2.97-.97-.97-2.23-.97-1.85,0Z"/>
    <path class="st0" d="M41.87,9.93c-.42.37-.74,1.48-.74,2.41l.05,1.72,1.11-1.3c1.11-1.25,1.58-3.57.74-3.57-.23,0-.79.32-1.16.74Z"/>
    <path class="st0" d="M80.54,9.66c0,.28.56,1.07,1.3,1.76l1.25,1.25.14-1.07c.09-.6-.09-1.39-.37-1.76-.65-.74-2.32-.88-2.32-.19Z"/>
    <path class="st0" d="M66.26,11.14c-.65.65-.74,3.15-.09,3.15.6,0,1.39-1.58,1.39-2.74s-.46-1.25-1.3-.42Z"/>
    <path class="st0" d="M88.94,11.79c-1.02,1.25-1.3,2.97-.56,2.97.7,0,2.36-2.36,2.36-3.29,0-1.21-.7-1.11-1.81.32Z"/>
    <path class="st0" d="M63.62,13.46c.14,1.44.42,3.11.7,3.71.32.79.37.37.14-1.48-.42-3.66-1.11-5.56-.83-2.23Z"/>
    <path class="st0" d="M74.05,11.37c.65.14,1.39.42,1.62.6.28.23.79.23,1.11.05.7-.46-.93-.97-2.74-.93l-1.16.09,1.16.19Z"/>
    <path class="st0" d="M97.89,11.37c.19.19,1.16.6,2.18.93q1.85.51,1.07-.37c-.46-.51-1.39-.88-2.18-.88s-1.25.14-1.07.32Z"/>
    <path class="st0" d="M60.14,12.3c0,.46.32,1.25.7,1.72.97,1.3,1.76.42,1.02-1.07-.7-1.39-1.72-1.81-1.72-.65Z"/>
    <path class="st0" d="M110.36,12.44c-.46.51-1.3,1.44-1.85,2.04-.6.6-1.07,1.34-1.07,1.72s.28.23.7-.37c.37-.56,1.3-1.11,2.09-1.3.74-.19,1.81-.93,2.36-1.67l.93-1.34h-1.16c-.65,0-1.58.42-1.99.93Z"/>
    <path class="st0" d="M118.57,12.58c0,.6.37,1.44.83,1.85.65.6.93.6,1.58.14.74-.56.74-.65-.23-1.53-1.76-1.58-2.18-1.67-2.18-.46Z"/>
    <path class="st0" d="M26.98,13.23c.42,1.72.93,2.27,2.55,2.83q1.3.46.88-.97c-.74-2.69-4.08-4.45-3.43-1.85Z"/>
    <path class="st0" d="M37.19,12.95c-.32.97.56,3.66,1.21,3.66.7,0,.97-1.95.42-3.29-.7-1.58-1.21-1.72-1.62-.37Z"/>
    <path class="st0" d="M46.46,13.5c-1.3.97-.09,1.39,2.92.97,1.44-.19,2.23-.42,1.72-.56-.51-.09-1.11-.37-1.34-.6-.65-.6-2.27-.51-3.29.19Z"/>
    <path class="st0" d="M72.24,13.37c-1.48.32-1.72,1.21-.46,1.53,1.16.32,3.66-.09,3.66-.6,0-.6-2.09-1.25-3.2-.93Z"/>
    <path class="st0" d="M125.11,14.11c-1.07,1.34-1.25,2.27-.51,2.74.56.32,2.6-1.76,2.92-3.01.37-1.39-1.25-1.21-2.41.28Z"/>
    <path class="st0" d="M43.26,16.24c-.83,1.21-.88,1.72-.32,2.64.7,1.11,1.9-.28,1.9-2.09s-.56-1.99-1.58-.56Z"/>
    <path class="st0" d="M98.26,16.29c-1.07,1.11-1.34,2.83-.56,3.34.51.32,2.32-2.41,2.32-3.62,0-1.07-.56-.97-1.76.28Z"/>
    <path class="st0" d="M51.01,16.84l-1.3,1.11,1.48.05c.93,0,1.95-.42,2.78-1.16l1.3-1.11-1.48-.05c-.93,0-1.95.42-2.78,1.16Z"/>
    <path class="st0" d="M75.49,16.8c-.42.51-.37.7.23.93,1.81.7,3.43.05,3.43-1.39,0-.51-3.2-.09-3.66.46Z"/>
    <path class="st0" d="M93.3,17.59c-.32,1.02.56,3.66,1.21,3.66.23,0,.42-.7.42-1.58,0-2.83-1.02-4.08-1.62-2.09Z"/>
    <path class="st0" d="M127.15,16.98c-.23.19-1.07,1.07-1.85,1.95-.74.88-1.07,1.34-.7,1.02.37-.28,1.07-.56,1.53-.56,1.11,0,3.48-1.34,3.76-2.18.28-.65-1.9-.83-2.74-.23Z"/>
    <path class="st0" d="M55.5,17.54c0,.6,3.2,2.04,3.62,1.62.19-.14.05-.65-.19-1.07-.56-.88-3.43-1.34-3.43-.56Z"/>
    <path class="st0" d="M29.3,17.96c.14.23,1.16.79,2.32,1.25,2.64.97,2.69,1.53.14,1.3-1.85-.14-1.81-.14.32.28,6.17,1.16,6.86,1.44,9.14,3.34,2.04,1.72,4.54,4.87,4.54,5.8,0,.14-.46-.14-1.02-.65-.6-.51-1.58-1.07-2.23-1.25-.97-.23-.93-.14.23.37,3.01,1.44,4.41,4.27,4.41,9.09l-.05,2.55-1.3-2.78c-.74-1.53-1.44-3.34-1.62-4.03-.37-1.53-1.48-2.69-2.6-2.69-1.25,0-.74,1.16,1.72,3.8,1.16,1.25,1.99,2.64,1.99,3.25,0,1.62,3.06,8.67,4.87,11.13,1.07,1.48,2.74,2.88,5.05,4.22,3.85,2.27,7.37,5.84,8.39,8.53l.7,1.76-.28-1.85c-.37-2.36-1.67-5.19-3.2-6.82-.65-.7-2.74-2.41-4.64-3.85-1.9-1.39-4.08-3.39-4.82-4.45-1.58-2.13-2.55-5.98-2.27-9.04.09-1.11,0-2.04-.19-2.04-.23,0-.37-1.07-.37-2.32s-.19-2.32-.42-2.32-.6-.46-.74-1.07c-1.07-3.71-5.75-8.02-10.06-9.37-1.11-.32-2.92-1.02-4.08-1.58-2.13-.97-4.45-1.3-3.94-.56Z"/>
    <path class="st0" d="M46.79,18.7c-.56.74-.83,1.58-.65,2.36q.23,1.16,1.07.32c.97-.97,1.72-3.85.97-3.85-.28,0-.88.51-1.39,1.16Z"/>
    <path class="st0" d="M72.48,18.42c-.83.93-1.02,3.29-.23,3.29,1.3,0,2.46-3.25,1.39-3.9-.19-.14-.74.14-1.16.6Z"/>
    <path class="st0" d="M24.9,18.33c-2.09.6-2.13.65-1.21,1.34.56.37,1.95.65,3.48.6,1.44,0,2.27-.14,1.9-.28s-1.02-.51-1.39-.83c-.97-.74-1.95-1.07-2.78-.83Z"/>
    <path class="st0" d="M116.34,18.56c-.65.65-.74,3.62-.09,3.62s1.39-1.62,1.39-2.97-.42-1.53-1.3-.65Z"/>
    <path class="st0" d="M99.56,20.18c-1.3,1.16-2.09,2.32-2.46,3.76l-.56,2.04-1.02-2.23c-.97-2.09-1.07-2.13-.79-.65.19.88.6,2.18.93,2.88.37.7.7,1.67.79,2.18s.51,1.34.97,1.85c1.07,1.16,2.09,4.03,2.13,5.94,0,.83-.6,3.48-1.39,5.84-.74,2.36-1.53,5.43-1.72,6.77l-.37,2.46-1.72-2.5c-2.88-4.17-2.27-7.88,1.9-11.59,1.72-1.48,1.85-1.72.74-1.16-3.15,1.62-5.33,5.19-5.33,8.76,0,1.53.46,2.74,1.85,5.01,1.67,2.74,1.85,3.29,1.85,6.17,0,3.8-2.27,13.26-4.03,16.74-.65,1.3-2.09,3.62-3.15,5.19-3.48,5.05-4.78,7.98-5.33,12.15-.65,4.96-1.85,8.81-4.73,15.16-2.04,4.5-3.85,9.88-3.48,10.25.09.09,1.25-1.95,2.6-4.45,1.34-2.55,2.5-4.64,2.6-4.64.23,0-1.44,3.76-3.62,8.11-.88,1.76-1.76,4.17-1.95,5.33l-.32,2.09,2.32-3.11c4.54-6.17,6.82-13.08,7.98-24.25.79-7.7,2.13-11.31,5.56-15.21,3.8-4.36,7.09-14.61,8.11-25.41.42-4.22,1.11-8.63,1.67-10.29.51-1.58,1.02-4.45,1.16-6.35.32-4.22,1.39-7.88,2.32-7.88.79,0,2.97-2.04,2.97-2.78,0-.23-.42-.46-.88-.46-1.07,0-2.41,1.62-3.62,4.22-.46.97-.97,1.81-1.16,1.81s-.79-.97-1.3-2.23c-1.67-3.76-1.11-9.32.88-8.67.65.19,1.39-.19,2.46-1.11l1.53-1.39-1.25-.05c-.83,0-1.95.6-3.15,1.72Z"/>
    <path class="st0" d="M77.34,20.27c-.93.6.83,1.44,3.06,1.44l1.76-.05-1.11-.88c-1.16-.97-2.64-1.16-3.71-.51Z"/>
    <path class="st0" d="M42.98,21.06c0,.28.88,1.44,1.99,2.6,1.34,1.34,2.23,2.83,2.64,4.36.42,1.39.74,1.95.83,1.39.23-1.07-1.81-6.31-2.41-6.31-.28,0-1.07-.56-1.76-1.25s-1.3-1.02-1.3-.79Z"/>
    <path class="st0" d="M124.6,22.08c-1.3,1.02-.88,2.13.6,1.67,1.16-.32,2.64-1.53,2.64-2.13,0-.7-2.18-.37-3.25.46Z"/>
    <path class="st0" d="M130.9,21.99c-.42,1.11-.32,2.92.23,3.99.42.79.6.83.93.32.79-1.25.37-5.05-.51-5.05-.19,0-.51.32-.65.74Z"/>
    <path class="st0" d="M29.35,22.59c-.56.6-.65.97-.28,1.21.83.51,2.69-.14,3.25-1.16.46-.83.37-.93-.83-.93-.74,0-1.72.42-2.13.88Z"/>
    <path class="st0" d="M102.34,22.87c-.56.7-.23,2.55.46,2.55.56,0,1.39-1.58,1.39-2.5s-1.11-.97-1.85-.05Z"/>
    <path class="st0" d="M35.7,22.96c-.56.09-1.25.51-1.53.88-.51.56-.23.65,1.53.65,2.13,0,3.34-1.02,1.9-1.58-.42-.14-.74-.23-.79-.23-.05.05-.56.19-1.11.28Z"/>
    <path class="st0" d="M26.75,23.8c-.32.42-.65,1.67-.7,2.78l-.05,2.09,1.07-1.02c.7-.65,1.07-1.53,1.07-2.5,0-1.76-.6-2.32-1.39-1.34Z"/>
    <path class="st0" d="M58.29,23.66c0,.23.65,1.11,1.48,1.9,1.25,1.21,1.53,1.34,1.67.7.23-1.21-.7-2.55-1.99-2.78-.65-.14-1.16-.05-1.16.19Z"/>
    <path class="st0" d="M91.02,24.12c.42,1.44.97,2.09,2.04,2.36,1.25.32,1.25-1.21,0-2.46s-2.46-1.25-2.04.09Z"/>
    <path class="st0" d="M110.45,24.36c.14.74.6,1.62.97,1.99.56.56.65.46.65-.74,0-1.34-.7-2.5-1.53-2.5-.23,0-.28.56-.09,1.25Z"/>
    <path class="st0" d="M49.85,24.36c-.19,2.41.65,4.59,1.53,4.03.56-.32.51-2.83-.05-3.94-.6-1.11-1.34-1.16-1.48-.09Z"/>
    <path class="st0" d="M67.37,24.36c-.37.37-.37,2.13,0,3.11.46,1.16,1.11.37,1.11-1.34,0-1.53-.51-2.36-1.11-1.76Z"/>
    <path class="st0" d="M79.15,24.63c0,.88,1.53,2.18,2.46,2.18s.93-.05.32-1.58c-.32-.88-.79-1.21-1.62-1.21-.65,0-1.16.28-1.16.6Z"/>
    <path class="st0" d="M21.37,25.98c.32,1.62,1.58,3.25,2.18,2.88.83-.51.42-2.92-.6-3.62-1.53-1.07-1.9-.93-1.58.74Z"/>
    <path class="st0" d="M53.46,26.91c-.74,2.55-2.13,4.5-2.13,3.11,0-.37-.42.28-.93,1.39-1.58,3.43-1.02,3.52,1.39.23,2.18-3.01,3.15-5.43,2.64-6.77-.09-.32-.56.56-.97,2.04Z"/>
    <path class="st0" d="M99.09,25.56c0,.6.42,1.48.93,1.95.88.83.93.79.93-.19,0-1.25-.79-2.83-1.39-2.83-.28,0-.46.51-.46,1.07Z"/>
    <path class="st0" d="M136,25.47c-.42.6-.74,1.95-.74,2.97v1.85l.93-1.16c1.11-1.48,1.53-3.06,1.02-4.03-.37-.6-.51-.56-1.21.37Z"/>
    <path class="st0" d="M31.76,25.47c-.7.28-1.39.93-1.58,1.48s-1.11,1.9-2.09,3.01c-2.41,2.78-3.76,6.96-3.15,10.02.23,1.25.83,3.01,1.34,3.85.51.88.93,1.67.93,1.81,0,.51-6.96-5.47-7.93-6.82-.56-.79-1.39-2.6-1.9-4.03l-.88-2.64.23,2.69c.23,3.06-.19,3.06-1.81-.05-.6-1.21-1.11-1.85-1.11-1.48-.05.93,2.04,5.38,2.69,5.75,1.11.7.42,1.07-1.67.88-2.64-.28-5.19.56-4.41,1.34.37.37,1.07.32,2.55-.28,1.81-.7,2.27-.7,3.9-.14,1.02.32,2.23.97,2.74,1.44,3.9,3.48,11.59,7.28,16.55,8.16,1.58.28,5.47,1.25,8.63,2.13,5.52,1.48,11.08,2.13,10.48,1.11-.14-.23-1.48-.65-2.97-.97-5.33-1.02-9.55-4.5-10.8-8.95-.79-2.83-2.69-4.73-2.69-2.69,0,.46.6,1.48,1.34,2.27.74.83,1.48,2.13,1.67,2.92s1.07,2.13,1.95,3.01c1.85,1.81,1.76,1.95-.6.93-.88-.37-3.29-.97-5.29-1.34-4.87-.93-6.45-1.67-8.3-3.76-2.04-2.36-2.83-4.31-2.83-7.23,0-4.41,2.32-7.37,5.75-7.37,1.07,0,2.18-.23,2.5-.56,1.67-1.67-.79-1.76-3.85-.14-1.21.65-2.32,1.11-2.41.97-.42-.42,1.39-2.6,2.13-2.6.93,0,2.83-1.85,2.83-2.69,0-.65-.23-.65-1.95-.05Z"/>
    <path class="st0" d="M142.03,26.86c-.7.83-1.21,1.99-1.21,2.78,0,1.25.09,1.34.97.88,1.44-.79,3.01-5.1,1.85-5.1-.23,0-.97.65-1.62,1.44Z"/>
    <path class="st0" d="M37.79,26.21c-1.21.32-1.02,1.02.37,1.58,1.25.46,2.97.19,2.97-.46,0-1.11-1.48-1.62-3.34-1.11Z"/>
    <path class="st0" d="M17.62,27.37c-1.07,1.16-1.34,2.88-.7,3.99.6.88,2.09-2.13,1.85-3.76l-.14-1.34-1.02,1.11Z"/>
    <path class="st0" d="M55.97,26.63c0,.6,1.39,3.43,1.72,3.48.19,0,.7.09,1.11.19.93.14.7-1.39-.37-2.64-.6-.7-2.46-1.48-2.46-1.02Z"/>
    <path class="st0" d="M11.59,28.48c.28,1.81,1.58,3.57,2.23,3.15.74-.42.42-2.36-.56-3.62-1.34-1.72-1.99-1.53-1.67.46Z"/>
    <path class="st0" d="M83.84,28.07c.05.74.23,1.81.42,2.46.28.93.37.65.42-1.3.05-1.3-.14-2.41-.42-2.41-.23,0-.46.56-.42,1.25Z"/>
    <path class="st0" d="M62.13,29.73c.05,1.44.05,2.64-.05,2.64s-.6-.23-1.16-.51c-.88-.42-.83-.32.14.46,4.13,3.34,4.82,3.62,2.97,1.21-.74-.97-1.34-2.6-1.58-4.03l-.42-2.46.09,2.69Z"/>
    <path class="st0" d="M126.92,28.76c0,1.02.32,1.9.93,2.46.93.83.93.79.93-.79,0-1.02-.32-1.9-.93-2.46-.93-.83-.93-.79-.93.79Z"/>
    <path class="st0" d="M78.69,29.09c0,.79,2.13,2.83,2.97,2.83,1.11,0,1.25-.74.37-1.81-.93-1.07-3.34-1.81-3.34-1.02Z"/>
    <path class="st0" d="M90.61,29.5c-.88.93-1.02,2.23-.37,2.64.51.28,2.36-1.95,2.36-2.83,0-.93-1.11-.79-1.99.19Z"/>
    <path class="st0" d="M132.85,31.26c-.14,1.99-.51,3.25-1.44,4.59l-1.25,1.85v-2.04c0-1.16.28-2.41.7-2.83.37-.42.83-1.44.97-2.23.23-1.25.19-1.44-.42-1.21-.74.28-1.81,2.69-1.39,3.11.14.14.09.51-.09.79-.23.42-.42.42-.65.05-.19-.28-.32.6-.37,1.95-.05,2.41-1.3,6.35-1.99,6.35-.23,0-.28-.88-.14-1.95.19-1.21.09-1.81-.19-1.62s-.6,1.53-.74,3.06c-.28,2.6-1.53,6.07-2.18,6.07-.32,0,.19-5.33.7-7.65.23-1.07.19-1.21-.19-.7-.28.37-.51,1.25-.51,1.95,0,1.62-.32,1.62-1.48.14-.51-.65-1.11-1.16-1.39-1.16-.23,0,.09.65.74,1.44,1.95,2.27,1.3,5.84-1.44,8.35-1.11,1.02-8.11,5.05-8.76,5.05-.14,0,.23-.56.74-1.3.83-1.11,3.01-7.51,2.55-7.51-.09,0-1.16,1.9-2.36,4.17-2.27,4.41-3.06,5.24-7.93,8.07-3.29,1.95-3.94,2.09-2.6.6,1.48-1.58,1.99-2.88,1.95-4.82v-1.76l-.65,1.39c-.37.74-.74,1.95-.88,2.6s-1.07,2.23-2.04,3.48c-2.04,2.55-3.52,5.29-3.99,7.37l-.28,1.39,1.02-1.39c1.67-2.23,3.99-4.31,6.31-5.61,1.21-.7,3.34-1.9,4.73-2.74,5.43-3.2,8.3-4.45,13.68-5.8,5.43-1.34,5.61-1.39,8.11-.65,3.52.97,4.54,1.76,4.87,3.62.42,2.13-.83,6.17-2.46,7.93-.7.74-2.64,2.36-4.27,3.57-2.83,1.99-4.54,3.62-6.72,6.4-.7.83-.37.7,1.39-.6,3.85-2.88,8.39-5.75,9.55-6.12,2.78-.79,6.4-2.36,8.25-3.62,3.11-2.09,6.26-3.2,7.7-2.64.93.37,1.16.28,1.16-.28,0-.6-.42-.7-1.95-.56-1.11.14-2.36.37-2.78.56-1.62.74-.79-.51,3.01-4.45,2.27-2.41,3.29-3.76,2.55-3.34-.7.37-1.58,1.11-1.95,1.67-.97,1.34-1.3.88-.74-1.02.23-.88.28-1.67.05-1.81-.19-.19-.56-.93-.74-1.67-.37-1.21-.46-.97-.7,1.85-.23,2.74-1.02,5.33-1.58,5.33-.05,0-.14-.93-.14-2.09s-.19-2.32-.42-2.55-.37.37-.28,1.62c.32,4.03-2.09,7.19-7.79,10.25-1.16.6-2.6,1.48-3.25,1.9l-1.16.79,1.21-1.39c.7-.74,1.48-1.85,1.81-2.5.74-1.34,2.41-6.72,1.99-6.31-.19.14-.65-.56-1.11-1.53-.97-2.27-2.46-3.25-5.38-3.66l-2.18-.32,3.39-1.53c1.9-.79,4.17-1.48,5.15-1.48s1.99-.32,2.32-.7c.51-.6.37-.7-.74-.7-.74.05-2.13.32-3.06.65-.97.37-1.76.56-1.76.42,0-.09.42-.97.93-1.99s.93-2.41.93-3.11l-.05-1.3-.93,1.11c-.65.79-.83,1.53-.65,2.32.37,1.81-1.58,3.39-6.03,4.92-2.04.74-4.5,1.67-5.43,2.18-.97.46-1.76.65-1.76.37,0-.23.19-.46.46-.46,1.02,0,4.45-3.66,6.72-7.19,2.83-4.31,3.2-4.68,7.05-6.72,3.43-1.81,5.98-3.99,6.4-5.47.28-.93.05-.83-1.48.7-1.76,1.76-7.05,5.01-7.47,4.59-.09-.14.28-.83.88-1.62,1.11-1.53,1.72-5.47.97-6.77-.32-.65-.46-.19-.65,1.9Z"/>
    <path class="st0" d="M25.36,29.55c0,.23-.23,1.02-.46,1.72l-.51,1.25-.74-1.11c-1.02-1.48-1.53-1.81-2.92-1.76-1.07,0-1.02.09.51.88,1.76.93,2.69,2.69,2.78,5.05,0,.83.23.51.7-1.11.93-3.2,1.3-5.33.93-5.33-.14,0-.28.19-.28.42Z"/>
    <path class="st0" d="M120.98,29.69c-.88.88-.65,1.3.74,1.3,1.21-.05,2.88-.93,2.88-1.58,0-.51-3.06-.28-3.62.28Z"/>
    <path class="st0" d="M136.7,30.99c-1.39,1.39-1.95,3.25-.97,3.25,1.21,0,3.43-3.71,2.64-4.45-.09-.14-.88.42-1.67,1.21Z"/>
    <path class="st0" d="M103.82,30.8c-.93.6-1.44,2.04-.74,2.04.65,0,2.09-1.02,2.5-1.85.6-1.16-.23-1.25-1.76-.19Z"/>
    <path class="st0" d="M74.33,32.01c-.56,1.34-.6,1.99-.23,3.01.46,1.25.51,1.25,1.16.42.7-1.02.79-2.78.19-4.22-.32-.83-.46-.74-1.11.79Z"/>
    <path class="st0" d="M94.04,32.01c-.51,1.39.19,4.27.93,3.8.56-.32.51-3.48-.05-4.36-.32-.51-.51-.42-.88.56Z"/>
    <path class="st0" d="M56.15,32.19c-.83.32-.19,1.99.88,2.32.65.19,1.16.05,1.58-.56.56-.74.51-.97-.19-1.44-.79-.6-1.39-.7-2.27-.32Z"/>
    <path class="st0" d="M124.32,33.03c-.14.7,0,1.9.32,2.69l.6,1.48.56-1.34c.6-1.48.42-2.74-.56-3.52-.46-.37-.7-.23-.93.7Z"/>
    <path class="st0" d="M20.08,33.17c-.65.65-.23,3.29.65,4.08.83.79.88.74,1.16-.32.46-1.72-.93-4.64-1.81-3.76Z"/>
    <path class="st0" d="M29.81,34.33c-.83,1.16-.97,2.5-.32,2.88.42.28,1.99-1.3,2.78-2.88.51-.93.42-1.02-.6-1.02-.65,0-1.44.42-1.85,1.02Z"/>
    <path class="st0" d="M89.03,34c-.14.42-.14.83-.05.97.14.14.37-.19.51-.74.28-1.07-.05-1.25-.46-.23Z"/>
    <path class="st0" d="M143.42,34.28c-.79.65-1.21,1.39-1.21,2.32,0,1.62-.79,1.99-5.1,2.5-3.76.37-6.63,1.72-7.98,3.62l-1.02,1.48,1.16-.97c2.92-2.6,7.33-3.57,10.34-2.32,2.04.83,2.92.65,1.02-.23-1.39-.65-1.58-1.34-.32-1.34,1.11,0,4.68-3.85,4.68-5.1,0-1.16-.05-1.16-1.58.05Z"/>
    <path class="st0" d="M37.28,34.46c.28.83,2.5,2.09,3.62,2.09.97,0,.88-1.07-.14-1.99-1.16-1.02-3.9-1.07-3.48-.09Z"/>
    <path class="st0" d="M52.35,34.84c-.65.65-1.02,1.67-1.02,2.64,0,1.48,0,1.53.93.7.83-.79,1.76-3.71,1.3-4.17-.14-.14-.65.23-1.21.83Z"/>
    <path class="st0" d="M77.58,34.51c-.42.37-.74,1.39-.74,2.18l.05,1.48,1.11-1.3c1.81-2.04,1.39-4.22-.42-2.36Z"/>
    <path class="st0" d="M112.22,34.84c-.51.56-1.07,1.72-1.21,2.55-.28,1.34-.23,1.44.56,1.07,1.11-.65,1.72-1.44,2.09-2.92.37-1.67-.28-1.99-1.44-.7Z"/>
    <path class="st0" d="M120.28,34.33c-.37.97.14,3.06.88,3.66.83.7,1.25.32,1.25-1.25,0-1.44-1.72-3.43-2.13-2.41Z"/>
    <path class="st0" d="M90.79,35.53c-.6,1.16.28,4.31.93,3.25.51-.79.51-2.74,0-3.57-.32-.51-.51-.46-.93.32Z"/>
    <path class="st0" d="M61.53,35.86c0,.42.56,1.3,1.25,1.99,1.16,1.11,1.3,1.16,1.44.42.19-.83-1.53-3.11-2.32-3.11-.19,0-.37.32-.37.7Z"/>
    <path class="st0" d="M9.6,35.99c0,.7,2.13,2.41,2.92,2.41,1.02,0,1.02-1.07-.05-1.99-.88-.83-2.88-1.07-2.88-.42Z"/>
    <path class="st0" d="M138.23,36.27c-.83.65-.83.7-.05.97.42.19,1.11.09,1.48-.23,1.53-1.3.23-1.95-1.44-.74Z"/>
    <path class="st0" d="M55.04,37.39c-1.99.88-3.71,2.64-3.71,3.76,0,3.71,1.76,6.45,6.31,9.97,5.38,4.13,7.09,7.09,7.14,12.33.05,2.46.97,8.53,1.62,10.43.32.88.28.88-.56-.05-.46-.51-1.48-1.39-2.27-1.95-2.04-1.39-2.78-3.43-2.13-5.84.28-1.02.42-1.99.28-2.09-.32-.32-1.58,3.11-1.58,4.41,0,.97-.14,1.11-.65.7-.37-.28-.88-1.21-1.21-2.04s-.74-1.9-.93-2.41c-.23-.51-.51-1.34-.65-1.85-.09-.51-.09.42.05,2.09l.23,3.01-2.09-2.23c-1.16-1.21-2.41-2.18-2.83-2.18-1.67,0-.32,1.85,2.13,3.01.93.42,2.74,1.99,4.03,3.48,1.3,1.48,2.78,2.88,3.29,3.01,1.95.6.37,1.02-2.41.6-5.66-.83-9.6-3.43-12.24-8.11-1.81-3.15-3.34-4.73-5.24-5.24-1.48-.42-2.83-.14-1.58.32,1.9.7,4.45,3.2,5.66,5.56,1.67,3.34,4.68,6.26,7.6,7.51,2.36,1.02,6.49,1.76,11.18,2.04,1.62.09,2.83.37,2.97.7.09.37-.28.46-1.16.32-.7-.14-3.2-.42-5.47-.65-5.7-.6-8.67-1.81-12.66-5.15-1.81-1.58-3.29-2.97-3.29-3.15.19-1.11-.46-1.76-3.94-3.99-3.2-2.09-4.08-2.92-4.92-4.68l-1.07-2.18.93-2.23c.74-1.72.79-2.18.28-1.99-.88.32-1.99,2.6-1.99,4.08,0,.65.23,2.13.51,3.29.51,1.99.65,2.13,4.31,3.9,3.43,1.67,6.54,3.66,5.75,3.71-.19,0-1.34-.65-2.55-1.39-2.13-1.34-6.07-2.74-12.71-4.41-3.76-.93-7.42-2.97-8.9-4.96-.65-.83-1.81-2.78-2.6-4.31-1.58-3.06-1.85-2.6-.65.97.79,2.46,3.15,6.21,3.85,6.21.28,0,.46.19.46.46,0,.23-.56.32-1.25.23-.74-.14-3.11-.32-5.33-.37-4.64-.14-5.89-.79-7.7-3.85-1.02-1.72-1.07-1.72-.79-.42.19.74.37,1.62.42,1.9.19,1.07,1.25,1.95,3.66,2.97,1.95.88,3.39,1.11,7.79,1.21,4.27.09,6.17.32,9.18,1.3,2.09.65,4.22,1.21,4.73,1.21.46,0,.88.19.88.46s-1.3.46-2.88.46c-2.64,0-4.87.37-8.25,1.25q-1.16.28.23.6c1.34.28,1.3.32-1.67,1.76-1.72.83-3.25,1.81-3.39,2.23-.7,1.85,1.16,1.3,3.8-1.16,2.32-2.18,4.96-3.11,10.34-3.71,6.35-.7,8.25-.05,14.38,5.19,3.99,3.39,6.86,4.73,11.96,5.7,3.48.7,4.08.93,3.2,1.25-1.02.37-4.31.14-6.86-.46-1.02-.28-1.07-.19-.56.42.83,1.07,3.01,1.25,7.23.79,4.22-.51,5.66-.32,7.93,1.21l1.62,1.16-.93-1.85c-1.62-3.15-2.36-6.96-2.74-14.19-.28-5.29-.6-7.47-1.3-9.04-1.02-2.32-3.8-5.01-6.63-6.45-1.3-.65-2.13-1.53-2.6-2.55-.74-1.85-.83-3.76-.19-4.17.28-.14.46-.83.46-1.53l-.05-1.25-.93,1.16c-.93,1.11-.97,2.64-.09,5.01.65,1.62-1.39-.56-2.23-2.46-1.58-3.48-.83-5.19,2.88-6.68.6-.23.79-.46.42-.46s-1.02.14-1.39.32Z"/>
    <path class="st0" d="M28.61,38.87c-.28.56-.46,1.62-.37,2.46.14,1.3.19,1.21.65-.97.56-2.64.46-2.92-.28-1.48Z"/>
    <path class="st0" d="M31.11,38.64c-.74.6-.79.74-.19,1.16.88.6,1.95.6,3.57-.05l1.3-.51-1.16-.6c-1.48-.83-2.41-.83-3.52,0Z"/>
    <path class="st0" d="M38.35,38.68q-1.11.65.7.32c1.02-.23,2.74-.37,3.8-.37s1.81-.14,1.67-.37c-.37-.6-4.96-.32-6.17.42Z"/>
    <path class="st0" d="M144.21,38.45c-.6.23-1.07.7-1.07,1.11,0,.93,2.69.93,3.9,0,.93-.7.97-.7-1.21-1.34-.32-.09-1.07,0-1.62.23Z"/>
    <path class="st0" d="M80.08,40.17c0,.74.37,1.72.88,2.13.79.7.88.7,1.16.05.32-.83-.88-3.48-1.58-3.48-.28,0-.46.6-.46,1.3Z"/>
    <path class="st0" d="M94.97,41.47c-.56.7-.97,1.85-.97,2.64v1.44l1.16-1.58c.65-.88,1.16-1.72,1.16-1.9s.14-.65.28-1.07c.46-1.16-.6-.88-1.62.46Z"/>
    <path class="st0" d="M43.21,41.61c-.42,1.3.14,2.83.97,2.83.51,0,.65-.42.56-1.72-.14-1.9-1.07-2.55-1.53-1.11Z"/>
    <path class="st0" d="M14.33,42.35c-.56.42-1.02,1.07-1.02,1.44,0,.83.19.83,1.99-.14.79-.42,1.99-.88,2.64-1.11l1.16-.32-1.25-.05c-.65-.05-1.48-.14-1.85-.28-.32-.14-1.07.09-1.67.46Z"/>
    <path class="st0" d="M117.08,41.98c-.93.23-1.99,2.92-1.16,2.92.97,0,2.5-1.3,2.78-2.32.23-.93-.05-1.02-1.62-.6Z"/>
    <path class="st0" d="M143.14,42.95c0,.88.46,1.95,1.16,2.74l1.16,1.3-.09-2.04c-.09-1.48-.42-2.23-1.16-2.74-1.02-.65-1.07-.6-1.07.74Z"/>
    <path class="st0" d="M31.16,43.6c.56,1.95,3.01,3.34,3.01,1.72,0-.65-2.13-2.74-2.78-2.74-.32,0-.42.42-.23,1.02Z"/>
    <path class="st0" d="M136.98,43.41c-.97,1.07-1.02,1.95-.09,1.95.79,0,2.55-1.62,2.55-2.32,0-.79-1.67-.51-2.46.37Z"/>
    <path class="st0" d="M8.67,44.16c0,1.39,1.53,3.34,2.23,2.88.83-.51.7-1.39-.42-2.78-1.16-1.48-1.81-1.53-1.81-.09Z"/>
    <path class="st0" d="M35.56,43.74c0,.88,1.62,2.55,2.5,2.55.46,0,.56-.32.42-1.07-.42-1.76-2.92-3.06-2.92-1.48Z"/>
    <path class="st0" d="M62,44.06c0,.6.46,1.81,1.02,2.69l1.07,1.62.14-1.53c.14-1.53-.88-3.8-1.76-3.8-.28,0-.46.46-.46,1.02Z"/>
    <path class="st0" d="M67.33,44.67c-1.21,1.16-1.39,1.9-.79,2.92.6.93,2.41-1.07,2.41-2.69s-.19-1.72-1.62-.23Z"/>
    <path class="st0" d="M148.06,44.53c-.88,1.25-.93,2.09-.14,3.52l.6,1.07.56-1.21c.65-1.44.74-3.8.14-4.17-.23-.14-.79.23-1.16.79Z"/>
    <path class="st0" d="M129.88,44.62c-.56.42-1.11,1.34-1.21,2.09-.19,1.21-.09,1.34.65.93,1.02-.56,1.85-2.09,1.67-3.01-.14-.6-.28-.6-1.11,0Z"/>
    <path class="st0" d="M16.46,45.22c-.93.97-1.11,3.15-.37,3.62.6.37,1.48-1.95,1.3-3.39q-.14-1.11-.93-.23Z"/>
    <path class="st0" d="M71.5,46.38c.19.83.7,1.95,1.21,2.41.79.83.88.88,1.16.09.42-1.07-.46-2.88-1.67-3.52-.97-.51-1.02-.46-.7,1.02Z"/>
    <path class="st0" d="M108,45.73c-.56.56-1.02,1.25-1.02,1.48,0,.93,1.34,1.02,2.5.14,1.3-.93,1.53-1.53.56-1.53-.37,0-.74-.23-.83-.56-.14-.37-.56-.19-1.21.46Z"/>
    <path class="st0" d="M57.82,45.92c0,.28.79,1.16,1.72,1.95,3.15,2.69,4.27,4.08,5.75,7.05,1.34,2.74,1.48,3.52,1.9,9.83.46,8.07,1.02,10.25,4.27,16.74,2.92,5.8,3.34,7.09,3.8,11.41.42,4.22,1.02,2.6,1.07-3.01.05-4.27-.6-7.51-2.78-14.38-1.11-3.48-1.39-5.01-1.25-7.23.19-2.92.37-3.29,4.13-8.35,1.67-2.23,2.32-4.64,1.81-6.77-.32-1.39-.37-1.44-.42-.28-.05.7-.28,1.81-.56,2.55-.65,1.76-2.78,5.38-3.01,5.1-.09-.09.19-1.72.7-3.62,1.16-4.73,1.53-7.37,1.02-7.37-.23,0-.6.97-.74,2.18-.19,1.25-.42,2.6-.56,3.06-.23.97-1.07.6-1.07-.51,0-1.34-2.41-3.8-4.03-4.08-.88-.19-1.53-.09-1.53.14,0,.83,1.58,1.9,3.01,2.09,1.21.14,1.44.42,1.99,2.32.56,2.09.51,2.32-1.11,6.49-2.41,6.07-2.36,8.95.28,16.55,1.07,3.15,1.85,5.8,1.72,5.89-.09.14-1.07-2.23-2.13-5.24-1.62-4.54-2.09-6.58-2.64-11.96-.56-5.38-2.83-16.37-2.92-14.19-.05.37-.46.14-1.02-.6-.51-.65-1.85-1.85-3.01-2.64-1.11-.74-2.04-1.67-2.04-1.99s-.51-.83-1.16-1.11c-.83-.42-1.16-.42-1.16,0Z"/>
    <path class="st0" d="M102.62,46.38c-.88,1.25-.93,1.76-.14,1.76.65,0,2.64-1.9,2.64-2.46,0-.74-1.85-.23-2.5.7Z"/>
    <path class="st0" d="M13.35,48.47l-.05,2.83-1.39-.65c-.74-.42-1.85-.65-2.41-.51-1.11.19-.97.28,1.72,1.07,1.02.32,2.04,1.39,3.71,3.9,1.3,1.85,2.6,3.52,2.97,3.62.42.14.32-.28-.37-1.21-1.58-2.23-2.83-5.43-3.52-8.81l-.6-3.11-.05,2.88Z"/>
    <path class="st0" d="M19.66,46.66c-.46.51-.79,1.62-.79,2.64v1.81l1.16-1.58c1.81-2.41,1.44-4.92-.37-2.88Z"/>
    <path class="st0" d="M118.29,46.2c-.6.37-1.58,2.13-1.58,2.83,0,.83.93.56,2.09-.65,1.72-1.67,1.3-3.39-.51-2.18Z"/>
    <path class="st0" d="M140.36,46.85c0,.88,1.76,3.62,2.32,3.62.83,0,.51-2.27-.46-3.25-1.07-1.07-1.85-1.21-1.85-.37Z"/>
    <path class="st0" d="M35.33,47.17c.28.23,1.11.6,1.85.79,1.81.42,1.39,0-.7-.7-.88-.28-1.39-.32-1.16-.09Z"/>
    <path class="st0" d="M45.77,47.68c.56,1.07,1.99,2.04,3.71,2.55.88.28.6-.09-1.07-1.58-2.46-2.09-3.43-2.46-2.64-.97Z"/>
    <path class="st0" d="M153.81,47.54c-1.9.7-3.25,3.39-1.67,3.39,1.02,0,3.06-1.85,3.06-2.83s-.19-.97-1.39-.56Z"/>
    <path class="st0" d="M10.52,48.33c0,.09.37.46.83.79.7.6.74.56.14-.19s-.97-.97-.97-.6Z"/>
    <path class="st0" d="M23.97,49.54c.56,1.07,2.36,1.62,3.57,1.16.74-.28.74-.37-.28-1.21-.6-.46-1.67-.88-2.41-.88-1.25,0-1.34.09-.88.93Z"/>
    <path class="st0" d="M65.8,50c0,.65.09.88.23.56.09-.28.09-.83,0-1.16-.14-.28-.23-.05-.23.6Z"/>
    <path class="st0" d="M102.06,49.58c-1.25.6-2.32,2.5-2.64,4.68-.37,2.46.28,2.23.97-.32.79-2.97,1.95-3.94,4.64-3.94,1.58,0,1.99-.14,1.48-.46-.88-.56-3.2-.56-4.45.05Z"/>
    <path class="st0" d="M136.75,50.09c-.83.83-.65,1.76.28,1.76.83,0,2.41-1.34,2.41-1.99,0-.56-2.09-.37-2.69.23Z"/>
    <path class="st0" d="M5.89,50.32c0,1.3,1.07,3.9,1.53,3.71.88-.28.93-1.67.14-2.88-.74-1.11-1.67-1.58-1.67-.83Z"/>
    <path class="st0" d="M21.23,51.2c-1.07,1.34-1.21,1.85-.6,2.23.51.32,1.25-.23,1.9-1.53.93-1.67-.09-2.23-1.3-.7Z"/>
    <path class="st0" d="M107.02,51.67c-1.02,1.3-1.3,2.5-.56,2.5.65,0,2.88-2.83,2.55-3.29-.42-.7-1.02-.46-1.99.79Z"/>
    <path class="st0" d="M30.46,52.73c0,1.62.7,3.29,1.39,3.29.88,0,.51-3.06-.46-3.94-.93-.83-.93-.79-.93.65Z"/>
    <path class="st0" d="M88.89,53.29c0,1.85.97,3.52,1.76,3.01.93-.56.6-2.36-.6-3.52l-1.16-1.07v1.58Z"/>
    <path class="st0" d="M138.04,53.57c-.93,1.16-.93,1.3-.23,1.44.88.19,3.06-1.21,3.39-2.13.37-1.16-2.13-.56-3.15.7Z"/>
    <path class="st0" d="M25.18,54.27c.42,1.44,1.11,2.23,1.85,2.23.83,0,.79-.19-.05-1.85-.88-1.67-2.32-1.95-1.81-.37Z"/>
    <path class="st0" d="M1.43,54.27c-.42.65,1.44,2.23,2.64,2.23s1.11-1.16-.14-2.04-2.04-.93-2.5-.19Z"/>
    <path class="st0" d="M10.06,54.13c0,1.34,1.25,3.43,2.69,4.5,1.11.83,1.44.97.93.37-.46-.56-.83-1.39-.83-1.9s-.42-1.48-.97-2.18c-.93-1.21-1.81-1.58-1.81-.79Z"/>
    <path class="st0" d="M125.34,54.73c-.79,1.11-1.02,4.08-.32,4.08.79,0,1.9-1.99,1.9-3.34,0-1.67-.7-1.99-1.58-.74Z"/>
    <path class="st0" d="M37.7,55.05c-.83.93-.88,2.36-.05,2.46.28.05.79-.51,1.16-1.16.93-1.62.09-2.6-1.11-1.3Z"/>
    <path class="st0" d="M42.38,54.68c-1.11.65-.56,1.34,1.11,1.34s3.34-.79,2.97-1.44c-.37-.56-3.01-.51-4.08.09Z"/>
    <path class="st0" d="M53.65,55.15c-4.45.74-8.86,3.57-8.21,5.24.46,1.21,1.25.83,1.58-.7.14-.79.51-1.48.79-1.58.28-.05,1.85-.56,3.52-1.11,1.67-.56,4.08-.97,5.33-.97,2.23-.05,2.27-.05,1.16-.7-.65-.37-1.25-.65-1.39-.6-.14,0-1.39.19-2.78.42Z"/>
    <path class="st0" d="M22.12,55.75c0,.37.56,1.11,1.25,1.67,1.11.83,1.62.93,4.41.65l3.2-.32,1.81,1.95c1.99,2.09,2.04,1.11.05-1.07-1.16-1.25-1.3-1.3-4.54-1.02-3.29.28-3.34.23-4.31-1.11-1.07-1.48-1.85-1.81-1.85-.74Z"/>
    <path class="st0" d="M69.41,56.12c0,.65.42,1.67.93,2.27l.88,1.11.05-1.44c0-.88-.37-1.76-.93-2.27-.93-.83-.93-.79-.93.32Z"/>
    <path class="st0" d="M149.87,55.66c-.97.56-1.62,1.3-1.62,1.85,0,.65,2.09.37,3.15-.37,2.04-1.44.7-2.74-1.53-1.48Z"/>
    <path class="st0" d="M85.64,56.44c-.56,1.11-.6,1.58-.05,1.25.42-.28,1.02-2.13.7-2.13-.09,0-.37.42-.65.88Z"/>
    <path class="st0" d="M93.16,56.12c-.32.32-.56.7-.56.88s-.23.93-.56,1.67c-.28.7-.46,2.46-.42,3.85.09,1.72-.23,3.43-.93,5.33-1.07,2.88-1.67,3.9-5.89,10.34-2.27,3.52-2.5,4.03-2.09,5.33l.42,1.48,1.07-2.09c.6-1.16,1.99-3.34,3.06-4.92,4.41-6.17,5.75-10.02,5.8-16.28,0-2.09.19-4.31.46-4.96.51-1.34.42-1.44-.37-.65Z"/>
    <path class="st0" d="M120.89,56.03c0,.28.28,1.11.65,1.81s.83,2.88,1.02,4.78c.28,3.34.23,3.62-1.21,6.35-.83,1.58-2.27,3.52-3.2,4.31-2.6,2.27-7.6,4.36-12.66,5.19-7.47,1.21-12.61,3.85-16.23,8.25-2.55,3.15-3.62,5.66-4.08,9.69-1.34,11.73-3.71,18.18-9.23,25.04-2.69,3.39-4.54,6.72-4.03,7.23.46.46,7.98-7.56,9.51-10.2,2.13-3.62,3.57-7.79,4.45-12.84,1.07-6.07,2.23-8.86,4.59-11.04,3.66-3.39,7.14-3.57,9.69-.6,1.21,1.34,5.19,4.22,5.94,4.22.23,0,1.34.88,2.41,1.99,1.39,1.39,2.32,2.97,3.25,5.56.74,1.99,1.39,3.57,1.53,3.48.19-.23-1.48-5.66-2.13-6.86-.7-1.34-.23-1.16,3.43,1.11,3.85,2.36,7.88,4.45,8.67,4.45.32,0-.7-.79-2.23-1.76-1.53-.93-5.47-3.39-8.72-5.43l-5.89-3.71,3.01-.23c1.67-.14,3.34-.51,3.66-.83.42-.42.28-.56-.74-.56-.74,0-2.09.23-3.01.51-2.46.74-5.19-.14-7.28-2.27-.88-.93-2.18-2.04-2.88-2.5-1.44-.93-1.16-1.11,3.25-1.67,2.46-.32,3.62-.23,5.56.37,4.08,1.25,5.29,2.13,7.23,5.19,3.85,5.98,5.33,7.42,6.63,6.58.46-.28.32-.46-.51-.65-.79-.19-1.81-1.34-3.39-3.94-1.21-2.04-2.78-4.27-3.43-4.96-1.67-1.76-.7-1.62,1.53.14,1.02.83,3.52,2.27,5.61,3.25,2.09.97,4.03,2.13,4.31,2.6.46.74.46.7.23-.23-.42-1.44.46-1.3,1.72.37.56.79,1.16,1.21,1.3.93.19-.28,1.02.09,2.13.97,1.62,1.34,4.27,2.74,5.15,2.74.19,0-1.34-1.07-3.39-2.36-1.99-1.3-3.85-2.55-4.03-2.74s1.72-.32,4.31-.32c3.8-.05,4.87-.19,5.56-.83.51-.46.93-1.02.93-1.25,0-.7-1.95-.37-3.11.56-1.81,1.44-5.84,1.25-12.52-.51-1.11-.32-1.99-.65-1.99-.83,0-.14,1.44-.28,3.15-.32,2.23,0,4.22-.42,6.86-1.34,3.15-1.16,3.94-1.67,5.84-3.85,1.21-1.39,2.55-3.48,2.97-4.68,1.81-5.01,2.92-7,3.8-7,1.11,0,3.25-1.62,2.78-2.09-.6-.65-3.15.79-4.54,2.55-.74.93-2.04,3.25-2.92,5.15-2.55,5.47-6.31,8.3-12.98,9.69-2.69.56-4.17.37-2.09-.23.6-.19,1.72-.79,2.46-1.39.79-.56,2.23-1.48,3.25-1.99,1.02-.56,1.53-.97,1.16-.97s-1.21.28-1.85.65c-1.67.97-1.85.88-1.9-1.07l-.05-1.72-.37,1.48c-.65,2.88-2.88,4.36-6.68,4.45-1.95.05-2.97-.28-5.84-1.85-4.96-2.69-7.93-3.57-11.08-3.25-2.69.32-8.02,1.95-10.67,3.34-2.27,1.16-5.56,4.36-6.63,6.4-.46.97-1.02,1.72-1.11,1.58-.14-.14.83-2.36,2.13-4.96,3.57-7.09,6.86-10.16,12.52-11.73,3.48-.97,6.96-1.34,6.96-.79,0,.28-.88.46-1.99.46-5.75,0-12.8,4.27-15.44,9.32-.65,1.25-.28,1.07,2.92-1.53,4.68-3.8,6.26-4.73,9.65-5.7,1.53-.46,3.57-1.11,4.54-1.44.93-.37,2.83-.65,4.17-.65,2.04,0,2.74.23,4.17,1.44.93.79,1.72,1.16,1.72.88s-.79-.97-1.72-1.53l-1.76-1.02,3.8-.14c2.23-.09,4.27.09,4.82.37.51.32,1.11.42,1.25.23.14-.14-.19-.37-.74-.56-3.34-.83,1.58-1.95,10.34-2.27,4.5-.19,6.68-.46,7.14-.88,1.11-1.07-1.44-1.39-3.99-.51-2.27.79-6.86,1.02-6.45.32.14-.23.97-.56,1.85-.7,1.58-.32,5.66-2.92,5.24-3.39-.14-.09-1.58.51-3.2,1.39-2.83,1.58-7.79,3.34-7.79,2.78,0-.32,1.11-1.21,3.39-2.74,1.02-.65,1.72-1.48,1.72-2.04,0-.51-.19-.93-.37-.93-.65,0-2.32,1.76-2.64,2.74-.6,1.99-5.24,3.85-11.27,4.5-1.72.14-3.62.51-4.22.74-2.23.83-1.48-.09.93-1.16,5.15-2.32,8.81-6.68,10.9-12.98,1.62-4.96,2.55-6.21,4.96-6.86,2.88-.74,4.41-2.32,2.88-2.92-1.02-.37-2.97.51-3.39,1.53-.19.46-1.02,1.44-1.9,2.18-.83.7-1.81,1.95-2.18,2.74-.37.88-.65,1.16-.79.7-.09-.37-.56-1.76-.97-3.01-.46-1.3-.93-2.78-1.07-3.39-.23-1.02-1.07-1.44-1.07-.56Z"/>
    <path class="st0" d="M139.34,56.91c-.65.51-1.3,1.58-1.39,2.32-.19,1.25-.14,1.3.83.88,1.07-.51,2.27-2.69,1.95-3.62-.09-.32-.6-.19-1.39.42Z"/>
    <path class="st0" d="M116.99,57.51c.74,1.34,1.76,2.23,2.6,2.23,1.16,0,1.07-1.21-.19-2.04-1.25-.88-2.88-1.02-2.41-.19Z"/>
    <path class="st0" d="M56.52,57.97c-.65.65-.7,2.18-.09,3.15.42.6.51.6.93,0,.56-.83.6-3.71.09-3.71-.19,0-.6.23-.93.56Z"/>
    <path class="st0" d="M111.06,58.58c-.46.6-2.27,1.62-4.03,2.32-4.03,1.53-5.89,2.78-7.14,4.87l-.97,1.62,1.81-1.62c1.02-.88,3.43-2.32,5.33-3.15,2.36-1.02,3.94-2.04,4.82-3.15.7-.88,1.21-1.72,1.11-1.81-.05-.09-.51.32-.93.93Z"/>
    <path class="st0" d="M113.1,58.62c-1.25.83-1.34,1.58-.19,1.58.83,0,2.41-1.34,2.41-1.99,0-.56-1.16-.32-2.23.42Z"/>
    <path class="st0" d="M52.26,59.88c0,1.53,1.16,3.01,1.85,2.36.37-.37.37-.83-.05-1.72-.74-1.62-1.81-1.99-1.81-.65Z"/>
    <path class="st0" d="M151.82,59.64c-1.3.28-.74,1.72.74,1.85,1.95.23,2.88-.23,2.23-1.02-.65-.74-1.81-1.11-2.97-.83Z"/>
    <path class="st0" d="M30.23,60.2c.14.23.51.46.74.46.28,0,.32-.23.19-.46-.14-.28-.51-.46-.74-.46-.28,0-.32.19-.19.46Z"/>
    <path class="st0" d="M4.49,62.06c-.46.83-.37.93,1.16.93,2.13,0,3.9-.83,2.97-1.44-1.21-.79-3.62-.46-4.13.51Z"/>
    <path class="st0" d="M58.56,62.15c-.83,1.16-.97,2.69-.28,2.69.46,0,2.32-2.69,2.32-3.39,0-.74-1.39-.28-2.04.7Z"/>
    <path class="st0" d="M115.23,61.68c-.74.65-1.44,2.69-.88,2.69.19,0,1.02-.74,1.9-1.62,1.34-1.39,1.44-1.62.65-1.62-.51,0-1.25.28-1.67.56Z"/>
    <path class="st0" d="M127.47,61.68c-.88.88-.65,1.76.51,1.76s3.11-1.21,3.11-1.9c0-.6-2.97-.51-3.62.14Z"/>
    <path class="st0" d="M48.64,62.38c-.65,1.21-.74,3.39-.09,3.39.46,0,1.11-2.88.83-3.8-.14-.42-.42-.28-.74.42Z"/>
    <path class="st0" d="M110.41,63.08c-.56,1.3-.32,2.83.42,2.55.7-.19,1.02-2.6.46-3.15-.28-.28-.65,0-.88.6Z"/>
    <path class="st0" d="M119.82,62.33c-.56.56-.37,2.83.28,3.39.79.6,1.25.23,1.25-1.11,0-1.16-1.07-2.74-1.53-2.27Z"/>
    <path class="st0" d="M77.39,63.08c-.7.7-.74,3.34-.05,2.92.74-.46,1.44-2.64.97-3.11-.19-.19-.6-.14-.93.19Z"/>
    <path class="st0" d="M87.82,62.84c-.51.51-.37,2.27.37,3.9l.65,1.58v-2.32c.05-2.32-.46-3.76-1.02-3.15Z"/>
    <path class="st0" d="M143.98,62.89c-.42.19-1.21.93-1.81,1.67l-1.02,1.3,1.58-.32c.88-.19,2.04-.74,2.6-1.3,1.53-1.34.7-2.18-1.34-1.34Z"/>
    <path class="st0" d="M19.8,63.35c0,.83,1.81,1.99,2.88,1.85l1.07-.14-1.02-1.07c-1.02-.97-2.92-1.44-2.92-.65Z"/>
    <path class="st0" d="M11.27,64.42c-1.44,1.11-1.58,2.27-.28,2.27,1.07,0,2.78-1.53,2.78-2.55s-1.07-.88-2.5.28Z"/>
    <path class="st0" d="M149.31,63.91c-.56.23-1.16.7-1.39,1.07-.19.32-.74.83-1.21,1.11-.65.32-.42.42,1.07.42,1.44-.05,2.18-.32,2.83-1.16,1.3-1.58.74-2.23-1.3-1.44Z"/>
    <path class="st0" d="M106.79,65.12c-.14.42-.28,1.58-.28,2.64v1.95l.97-1.53c.65-.97.88-1.85.7-2.64-.32-1.3-.97-1.53-1.39-.42Z"/>
    <path class="st0" d="M4.03,66c0,.6.46,1.58,1.07,2.09l1.02.97.14-.97c.19-1.07-1.02-3.25-1.76-3.25-.28,0-.46.51-.46,1.16Z"/>
    <path class="st0" d="M117.36,65.53c1.25,3.29.88,5.1-1.48,7.74-1.16,1.3-1.39,1.76-.7,1.39,3.25-1.76,4.87-7.6,2.55-9.46-.65-.51-.7-.46-.37.32Z"/>
    <path class="st0" d="M110.92,67.62c-1.67,1.72-3.15,2.64-5.98,3.76-4.78,1.9-7.42,3.71-9.27,6.31-1.53,2.23-2.32,3.85-1.76,3.85.65,0,1.34-.7,2.78-2.69,2.97-4.13,6.4-5.94,10.48-5.52,2.13.23,2.23.23.74-.19l-1.58-.51,1.11-.88c.65-.46,1.3-.88,1.48-.88.28,0,4.68-5.56,4.41-5.56-.05,0-1.16,1.02-2.41,2.32Z"/>
    <path class="st0" d="M15.99,66.09c-1.76.46-.51,1.53,1.76,1.53.65,0,1.62-.23,2.18-.56l1.02-.56-1.16-.32c-1.3-.37-2.64-.42-3.8-.09Z"/>
    <path class="st0" d="M74.52,67.48c0,2.36.37,3.39,1.21,3.39.97,0,.79-2.32-.28-3.94l-.93-1.39v1.95Z"/>
    <path class="st0" d="M135.73,66.79c-2.41.46-4.59,1.11-4.87,1.39-.32.32-.14.37.65.14,1.76-.56,8.44-.32,10.9.32,2.36.65,2.64.97,3.39,3.39.46,1.58,1.67,1.85,1.95.46.09-.6-.37-1.34-1.39-2.18q-1.53-1.3-.42-1.34c.88-.05.74-.14-.56-.51-1.99-.51-2.27-1.11-.7-1.44.56-.09-.32-.23-1.99-.28-2.13-.05-2.83-.19-2.32-.51.88-.6.6-.56-4.64.56Z"/>
    <path class="st0" d="M78.74,67.34c-1.16,1.39-1.34,4.68-.42,7.98,1.95,7.23,2.32,9.65,2.04,13.49-.28,3.62-2.04,10.25-3.11,11.73-.42.56-.46.51-.19-.23,2.13-5.89,2.27-6.58,2.27-12.29.05-5.33-.05-5.98-1.16-8.35-1.25-2.64-4.03-6.72-4.36-6.4-.09.09.42,2.09,1.16,4.45,2.23,6.86,2.55,13.68.97,20.5l-.37,1.62-.46-2.13c-.51-2.36-3.34-7.74-4.59-8.81-.74-.6-.74-.56-.09.74.37.74,1.39,4.59,2.23,8.44.83,3.9,1.72,7.09,1.95,7.09.19,0,.37-.28.37-.6s.32-1.02.7-1.53c.6-.79.6-.7,0,.83-.37.97-.7,2.64-.65,3.71l.05,1.99,2.09-4.31c3.85-7.98,5.7-15.26,4.96-19.8-.32-2.27-1.48-6.63-2.09-7.88-1.99-4.31-2.23-7.09-.83-9.32.93-1.53.6-2.23-.46-.93Z"/>
    <path class="st0" d="M102.48,67.48c-1.11,1.11-1.34,2.27-.65,3.34.32.51.6.32,1.21-.83.42-.83.7-1.95.6-2.5l-.14-1.02-1.02,1.02Z"/>
    <path class="st0" d="M113.1,67.25c-.88.88-.65,1.3.74,1.3,1.25,0,2.41-.7,2.41-1.48,0-.6-2.55-.42-3.15.19Z"/>
    <path class="st0" d="M7.74,67.94c0,1.34.56,2.92.97,2.92.7,0,1.02-2.27.42-3.01-.79-.93-1.39-.88-1.39.09Z"/>
    <path class="st0" d="M31.39,67.71c-1.62.46-3.71,2.04-3.71,2.78,0,.23.32.09.7-.28,1.11-1.11,5.15-2.13,8.53-2.18,2.23-.05,2.74-.14,1.9-.42-1.62-.51-5.47-.46-7.42.09Z"/>
    <path class="st0" d="M148.62,68.27c-1.16.83-1.07,1.07.65,1.39,1.48.28,3.62-.65,3.62-1.58,0-.7-3.34-.51-4.27.19Z"/>
    <path class="st0" d="M52.49,68.55c-.23.42,2.32,1.85,3.25,1.85.46,0,.23-.88-.51-1.58-.83-.83-2.32-.97-2.74-.28Z"/>
    <path class="st0" d="M12.84,69.52c0,.65.32,1.58.7,2.09.65.83.65.74.42-.74-.37-2.04-1.11-2.92-1.11-1.34Z"/>
    <path class="st0" d="M25.04,69.06c-.97.37-1.95,2.46-1.39,3.01.09.14.79-.28,1.48-.83,1.53-1.34,1.48-2.78-.09-2.18Z"/>
    <path class="st0" d="M1.99,70.03c.46,1.53,1.11,2.23,2.09,2.23.74,0,.79-.19.37-1.25-.51-1.34-1.21-1.99-2.18-1.99-.42,0-.51.32-.28,1.02Z"/>
    <path class="st0" d="M129.6,69.43c-.7.23-1.72.79-2.32,1.21-.88.65-.93.74-.14.46,3.06-1.16,4.45-1.34,5.94-.74,3.25,1.34,5.61,1.11,3.8-.42-.83-.7-5.61-1.02-7.28-.51Z"/>
    <path class="st0" d="M79.94,69.8c-.6.56-.32,1.99.37,1.99.56,0,1.62-1.3,1.62-2.04,0-.37-1.62-.32-1.99.05Z"/>
    <path class="st0" d="M34.64,71.38c.51,1.76,1.3,2.74,2.13,2.74,1.02,0,.74-1.81-.51-3.01-1.53-1.58-2.13-1.48-1.62.28Z"/>
    <path class="st0" d="M98.03,70.77c-.46.46-.79,1.44-.79,2.18,0,1.07.09,1.16.65.74.7-.56,1.48-3.2,1.11-3.57-.14-.09-.56.19-.97.65Z"/>
    <path class="st0" d="M111.94,70.77c-.46.46-.79,1.02-.79,1.16,0,.74,1.9.23,3.11-.83l1.3-1.11-1.44-.05c-.83,0-1.76.37-2.18.83Z"/>
    <path class="st0" d="M141.75,70.73c.05.46.32,1.34.7,1.99.56,1.02.65,1.07.93.32.46-1.16-.14-3.11-.93-3.11-.37,0-.7.37-.7.79Z"/>
    <path class="st0" d="M7.42,72.49c.28.97,1.11,2.32,1.85,3.06,1.48,1.53,6.17,3.11,6.91,2.36.32-.32-.14-.56-1.34-.79-2.46-.37-4.41-1.62-5.98-3.8-1.99-2.69-2.04-2.74-1.44-.83Z"/>
    <path class="st0" d="M40.11,71.79c-.65.88-.74,1.67-.56,3.71l.32,2.55-1.62-1.53c-.88-.79-1.72-1.48-1.9-1.48-.37,0,3.2,3.29,4.78,4.31,1.85,1.3,2.13.88.56-.74-1.58-1.62-1.81-2.6-.97-4.08.23-.51.42-1.58.32-2.41l-.14-1.48-.79,1.16Z"/>
    <path class="st0" d="M150.8,71.52c-1.16.51-1.21.6-.51,1.16.88.74,3.06.28,3.39-.7.28-.79-1.39-1.07-2.88-.46Z"/>
    <path class="st0" d="M27.5,72.07c-.28.79.97,3.25,1.44,2.83.32-.32-.32-3.06-.79-3.34-.19-.14-.51.09-.65.51Z"/>
    <path class="st0" d="M10.99,72.4c0,.83.97,1.99,1.99,2.32,1.07.42,1.07-1.16-.05-2.13-1.02-.93-1.95-1.02-1.95-.19Z"/>
    <path class="st0" d="M30.74,73.74c.42,1.48.93,2.04,2.88,3.2,1.53.88,1.62.88.93.09-.46-.51-.83-1.11-.83-1.39,0-.6-2.27-2.92-2.88-2.92-.23,0-.28.46-.09,1.02Z"/>
    <path class="st0" d="M82.03,74.25c-1.3,1.39-1.3,1.9.05,1.21,1.02-.56,1.72-1.3,1.72-1.95s-.79-.32-1.76.74Z"/>
    <path class="st0" d="M138.97,74.16c-.28.46-.46.93-.46,1.07,0,.56,1.34.23,2.36-.6l1.02-.83-1.25-.23c-.88-.19-1.34,0-1.67.6Z"/>
    <path class="st0" d="M22.72,74.48c1.21,1.3.97,1.48-1.85,1.48-1.85,0-3.2-.28-4.31-.93l-1.62-.97,1.3,1.21c1.34,1.21,1.95,1.3,7.6,1.16,1.53-.05,3.71.19,4.78.46s2.04.42,2.18.32c.09-.14-1.02-.6-2.5-1.02s-3.39-1.16-4.22-1.67c-1.95-1.11-2.32-1.11-1.34-.05Z"/>
    <path class="st0" d="M43.45,73.83c0,.88,1.21,3.2,1.9,3.57.74.37.88.28.88-.42,0-.97-1.67-3.34-2.36-3.34-.23,0-.42.09-.42.19Z"/>
    <path class="st0" d="M.6,74.58c-.83.28-.83.32.23,1.07,1.16.83,3.66,1.07,3.66.37,0-1.02-2.46-1.95-3.9-1.44Z"/>
    <path class="st0" d="M5.42,74.3c0,.97,1.99,2.97,3.66,3.76,1.07.46,1.9,1.02,1.9,1.25,0,.65-2.64.42-3.25-.32-.6-.7-3.71-.97-3.71-.32,0,1.21,1.39,1.48,7.56,1.48,4.13,0,6.31.19,6.12.46-.14.23-.74.46-1.34.46s-2.36.83-3.94,1.85-3.11,1.85-3.43,1.85c-.93,0-2.64,1.39-2.64,2.13,0,1.16,1.81.7,2.88-.74,1.11-1.53,2.97-2.78,5.38-3.62,1.67-.56,1.76-.46.83.97-1.16,1.85-1.34,3.8-.37,4.96.46.56,1.07.97,1.34.88.51-.19.19-1.39-1.02-4.22-.51-1.3,1.99-3.43,5.15-4.36,2.18-.6,3.9-.74,8.76-.56,9.88.37,12.38-.46,4.27-1.48-3.62-.42-6.58-.46-12.33-.09-4.31.28-8.16.28-8.95.05-2.04-.56-5.33-2.6-6.17-3.76-.37-.6-.7-.88-.7-.65Z"/>
    <path class="st0" d="M108.97,74.81c-.42,1.11.14,1.34,1.72.7,2.04-.83,2.13-1.39.23-1.39-1.07,0-1.76.23-1.95.7Z"/>
    <path class="st0" d="M122.14,75.27c-.97.7-2.6,1.62-3.71,2.13l-1.95.88,1.85-.28c2.41-.32,5.7-1.9,6.31-3.01.65-1.25-.37-1.16-2.5.28Z"/>
    <path class="st0" d="M150.47,75.04c-.88,1.21-1.07,2.32-.42,2.32.74,0,1.53-1.34,1.34-2.41l-.14-1.07-.79,1.16Z"/>
    <path class="st0" d="M101.36,75.97l-1.11.88,1.48.05c1.62,0,3.85-.83,3.85-1.48,0-.74-3.15-.37-4.22.56Z"/>
    <path class="st0" d="M153.95,76.29c-.6.09-1.34.6-1.67,1.07-.37.51-1.62,1.02-3.25,1.34-2.74.51-4.54,1.58-5.84,3.43-.46.7-.19.56,1.02-.46,1.67-1.44,2.32-1.72,7.7-3.01,1.62-.37,2.74-.97,3.2-1.67.37-.56.51-.97.28-.97-.23.05-.88.19-1.44.28Z"/>
    <path class="st0" d="M48.55,78.42c0,1.62,1.07,3.11,1.58,2.23.42-.65-.14-2.69-.93-3.34-.56-.42-.65-.23-.65,1.11Z"/>
    <path class="st0" d="M42.98,78.15c0,.32,1.48,1.48,1.99,1.53.79,0,.23-.83-.83-1.3-.65-.28-1.16-.42-1.16-.23Z"/>
    <path class="st0" d="M90.19,80c-1.67,1.72-4.08,6.21-4.08,7.56,0,.37.74-.6,1.58-2.23.88-1.62,2.09-3.57,2.69-4.41,2.36-3.11,2.27-3.43-.19-.93Z"/>
    <path class="st0" d="M46.69,79.82c0,.74,1.53,2.69,2.5,3.15q.93.46.09-.23c-.51-.42-1.3-1.3-1.76-1.99-.46-.74-.83-1.11-.83-.93Z"/>
    <path class="st0" d="M134.94,80.84c1.39,1.25,2.04,1.39,3.06.74.88-.56-1.16-1.9-2.97-1.9l-1.39.05,1.3,1.11Z"/>
    <path class="st0" d="M33.48,81.48c-1.76.46-4.27,1.3-5.47,1.85-1.25.51-3.01.97-3.94,1.02l-1.72.05,1.62.51c2.23.65,2.18.6.65,2.32-1.21,1.34-1.25,1.39-.09.37.65-.6,1.44-.97,1.67-.79.23.14.88-.23,1.44-.83.6-.6,2.32-1.67,3.85-2.36,2.55-1.16,3.2-1.25,6.82-1.07,3.99.23,8.53,1.58,7.47,2.23-1.21.74,4.41,2.46,9.46,2.88,6.54.51,7.7,1.16,2.09,1.11-4.78,0-11.13,1.02-14.24,2.27-3.01,1.21-1.99,1.39,1.44.23,1.67-.56,3.29-.93,3.66-.83,1.58.56-9.09,4.54-12.15,4.54-.93,0-2.13-.32-2.69-.74-1.34-.93-2.55-3.29-2.27-4.41.19-.7,0-.88-.88-.88-1.21,0-1.53.7-.46,1.07.32.14.74.88.88,1.67.6,3.01,4.22,4.73,8.21,3.94,1.25-.28,2.18-.32,2.04-.09-.65,1.02-8.67,4.17-13.08,5.15-1.9.42-6.12-.51-9.32-2.09-1.67-.83-3.25-1.58-3.52-1.72-.23-.09-.09.23.37.74.46.56,2.09,1.53,3.62,2.18,1.48.7,2.74,1.34,2.74,1.48,0,.32-4.22-.32-5.33-.83-.88-.42-.88-.37-.09.28,1.72,1.34,8.67,2.04,12.75,1.25,1.07-.23,1.95-.28,1.95-.09,0,.14-1.48.97-3.25,1.85-1.81.83-3.2,1.67-3.06,1.76.23.23,3.8-1.44,9.09-4.27,1.67-.88,3.2-1.58,3.48-1.62.23,0-1.21,1.53-3.2,3.34-3.2,2.97-3.62,3.57-3.48,4.78l.19,1.39,1.07-1.07c.74-.74,1.02-1.48.88-2.23-.19-1.02.28-1.67,2.6-3.39.79-.6.79-.51.51,1.25-.19,1.34-.14,1.95.23,1.95.28,0,.51.42.51.88,0,.83,1.58,2.36,2.41,2.36s.28-1.3-1.02-2.55c-.88-.83-1.39-1.81-1.39-2.55,0-3.01,5.01-7.28,13.12-11.18,3.57-1.72,4.31-1.9,7.6-1.9,3.94-.05,5.75.51,9.18,2.88,2.23,1.53,2.5,1.34,1.58-1.44-1.16-3.34-3.39-4.59-10.62-5.98-2.55-.46-5.33-1.21-6.12-1.58-9-4.03-12.15-4.59-17.76-3.11Z"/>
    <path class="st0" d="M150.56,81.11c-1.11.46-1.11.51-.28,1.16.97.7,2.32.79,3.71.23.83-.32.83-.37-.23-1.11-1.25-.88-1.58-.93-3.2-.28Z"/>
    <path class="st0" d="M9.27,81.39c-.93.37-.7,1.53.28,1.53,1.39,0,2.36-.51,2.36-1.21,0-.65-1.48-.83-2.64-.32Z"/>
    <path class="st0" d="M124.92,81.39c-.51.46,1.11,1.99,2.09,1.99,1.16,0,1.07-.74-.19-1.58-1.16-.83-1.48-.88-1.9-.42Z"/>
    <path class="st0" d="M4.4,82.04c-.46.23-1.02.88-1.3,1.34-.42.79-.32.93.7.93,1.16,0,3.01-1.44,3.01-2.32,0-.6-1.39-.56-2.41.05Z"/>
    <path class="st0" d="M56.48,82.27c-1.39.37-2.83.56-3.2.42-.32-.14-.46,0-.28.28.19.32,1.02.37,2.46.14,3.2-.51,5.61-.28,7.37.83,2.46,1.53,4.92,5.01,6.03,8.58.56,1.76,1.48,4.03,1.99,5.05l.97,1.81-.32-2.32c-1.02-8.07-4.73-13.77-9.74-15.02-2.41-.6-2.13-.6-5.29.23Z"/>
    <path class="st0" d="M24.81,82.55c.74.37,1.3.37,2.09,0,.88-.42.79-.51-1.07-.51s-1.95.09-1.02.51Z"/>
    <path class="st0" d="M144.95,83.29c-1.9,1.25-5.56,5.19-4.73,5.19.7-.05,2.69-1.34,2.04-1.39-1.11,0,.83-1.76,3.9-3.48,1.76-1.02,2.46-1.62,1.81-1.62-.51,0-1.85.6-3.01,1.3Z"/>
    <path class="st0" d="M18.87,83.15c-.32.42-.46.83-.32.97.51.51,2.5-.23,2.5-.97,0-.88-1.44-.88-2.18,0Z"/>
    <path class="st0" d="M119.59,83.48c.74,1.07,2.55,1.95,2.88,1.34.46-.74-1.16-2.36-2.36-2.36-1.11,0-1.16.05-.51,1.02Z"/>
    <path class="st0" d="M130.49,83.29c-.97,1.07-1.07,3.9-.14,3.52,1.16-.46,2.32-4.36,1.3-4.36-.23,0-.74.37-1.16.83Z"/>
    <path class="st0" d="M101.97,84.27c-1.34.46-2.74,1.11-3.01,1.39-.32.32.32.23,1.53-.19,1.16-.42,3.71-.88,5.7-1.02,1.99-.14,3.71-.46,3.85-.65.46-.74-5.61-.37-8.07.46Z"/>
    <path class="st0" d="M135.45,84.27c-1.53.93-2.41,2.83-1.34,2.83.88,0,2.41-1.48,2.78-2.69q.37-1.25-1.44-.14Z"/>
    <path class="st0" d="M33.94,84.31c-1.11.42-2.32,1.76-1.99,2.13.42.37,2.83-.74,3.76-1.72.79-.83.79-.88,0-.83-.46,0-1.25.19-1.76.42Z"/>
    <path class="st0" d="M36.68,85.47c-.7.93-1.11,1.76-.93,1.95.14.14.28.05.28-.23,0-.79,2.13-2.04,4.54-2.69l2.18-.6h-2.41c-2.23-.05-2.5.09-3.66,1.58Z"/>
    <path class="st0" d="M43.82,84.64c.32.14.74.09.88-.05.19-.14-.09-.28-.6-.23-.51,0-.65.14-.28.28Z"/>
    <path class="st0" d="M111.89,84.82c-1.16.7-.05,1.44,1.58,1.02,1.72-.42,2.04-.65,1.34-1.11-.88-.56-1.85-.51-2.92.09Z"/>
    <path class="st0" d="M59.35,85.1c.42.09,1.16.09,1.62,0,.42-.14.05-.23-.83-.23s-1.25.09-.79.23Z"/>
    <path class="st0" d="M19.1,86.35c-1.39.56-1.39.6-.37,1.11.56.32,1.3.56,1.62.56.7-.05,2.5-1.3,2.18-1.58-.6-.56-2.23-.6-3.43-.09Z"/>
    <path class="st0" d="M116.3,86.59c-.37.7-.32.93.23,1.16.97.37.93.37,1.76-.46.42-.37.65-.93.51-1.16-.46-.74-2.04-.46-2.5.46Z"/>
    <path class="st0" d="M147.09,86.17c-.56.88.74,1.85,2.36,1.85,1.81,0,1.99-.56.56-1.58-1.21-.83-2.5-.97-2.92-.28Z"/>
    <path class="st0" d="M11.03,86.82c-.32.37-.51,1.39-.42,2.23l.14,1.53,1.07-1.16c1.11-1.21,1.39-3.25.37-3.25-.32,0-.88.28-1.16.65Z"/>
    <path class="st0" d="M39.74,87.28c0,.83,1.76,2.13,2.88,2.13s1.07-.7-.09-1.85c-1.07-1.07-2.78-1.25-2.78-.28Z"/>
    <path class="st0" d="M122.74,86.96c-.37.14-1.11.65-1.62,1.07-.51.46-1.53.93-2.32,1.07-.83.09-.32.23,1.21.28,1.99.05,2.88-.19,3.85-.93,1.67-1.34.97-2.27-1.11-1.48Z"/>
    <path class="st0" d="M25.45,88.86c-.56,1.58-.09,3.8.83,3.8.56,0,.56-3.01.05-4.36-.32-.83-.42-.74-.88.56Z"/>
    <path class="st0" d="M114.86,88.26c2.13.83,2.97.79,1.16,0-.74-.37-1.72-.65-2.09-.65s.05.32.93.65Z"/>
    <path class="st0" d="M21.51,89.97c-1.34,1.34-1.67,3.15-.56,3.15.79,0,2.23-2.55,1.99-3.62-.14-.65-.37-.6-1.44.46Z"/>
    <path class="st0" d="M33.25,89.23c0,.97,1.95,3.48,3.06,3.9,1.95.74,2.41.51.65-.37-.88-.42-2.09-1.48-2.64-2.36-.6-.88-1.07-1.39-1.07-1.16Z"/>
    <path class="st0" d="M36.49,90.81c.56,1.07,2.64,1.72,3.29,1.07.74-.74-.83-1.99-2.41-1.99-1.25,0-1.34.09-.88.93Z"/>
    <path class="st0" d="M138.18,90.34c-.6.23-1.07.56-1.07.74,0,.14.37.14.83-.05.42-.19,1.95-.51,3.34-.7l2.55-.32-2.32-.05c-1.25,0-2.78.14-3.34.37Z"/>
    <path class="st0" d="M144.86,90.53c-.32.88.56,1.58,2.36,1.95,1.72.37,1.95-.28.56-1.67-1.07-1.07-2.55-1.21-2.92-.28Z"/>
    <path class="st0" d="M10.52,92.24c0,.7.97,2.46,1.58,2.83,1.62,1.07,2.36-.74.88-2.04-1.11-.93-2.46-1.39-2.46-.79Z"/>
    <path class="st0" d="M141.38,93.36c1.39,2.13,2.23,2.41,2.23.79s-.74-2.41-2.18-2.41h-1.07l1.02,1.62Z"/>
    <path class="st0" d="M16.27,93.68c.28,1.53,1.48,3.15,2.27,3.15.65,0,0-2.83-.93-3.8-1.16-1.25-1.67-1.02-1.34.65Z"/>
    <path class="st0" d="M53.65,93.31c0,.74.97,1.21,2.64,1.21,1.16,0,1.21,0,.37-.93-.97-1.07-3.01-1.25-3.01-.28Z"/>
    <path class="st0" d="M106.65,92.99c-.32.09-.6.51-.6.88,0,.79,2.55.88,3.06.14.56-.88-1.11-1.58-2.46-1.02Z"/>
    <path class="st0" d="M133.96,94.38c-1.11,1.11-1.16,1.3-.42,1.44.97.19,2.64-1.11,2.64-2.09s-.88-.7-2.23.65Z"/>
    <path class="st0" d="M28.14,95.44c.7,1.3,2.64,2.18,3.29,1.53.74-.74-1.11-2.46-2.6-2.46-1.07,0-1.11.09-.7.93Z"/>
    <path class="st0" d="M58.33,95.03c.32.19-.19.56-1.16.88-.93.28-1.67.7-1.67.93,0,.56-6.68,3.71-7.88,3.71-.51,0-.93.19-.93.46,0,1.02-2.92,1.95-5.43,1.72-2.23-.23-2.46-.19-2.46.65,0,1.39,2.13,1.11,7.42-.93,2.55-.97,4.64-1.67,4.64-1.53s-.51.88-1.07,1.67c-.6.79-1.67,2.46-2.36,3.76-.7,1.25-.93,1.85-.46,1.25.42-.56.93-1.02,1.11-1.02s.46,1.34.6,3.01c.32,3.34.83,4.59,2.18,5.33,1.48.79,1.21-1.07-.46-2.92-2.13-2.41-1.85-6.45.6-8.95.56-.56,1.58-1.62,2.23-2.36,1.16-1.25,5.75-3.8,8.3-4.54,1.11-.37,1.07-.32-.37,1.34s-1.76,2.74-1.21,4.17c.46,1.25,1.25.83.93-.46-.46-1.72.05-2.88,1.58-3.66,1.95-.97,4.5-.88,6.45.32l1.67,1.02-.74-1.11c-.42-.65-1.44-1.62-2.32-2.23-1.34-.93-2.04-1.07-5.61-.97-2.27.09-3.85.28-3.57.46Z"/>
    <path class="st0" d="M48.55,95.4c0,.7,2.64,1.53,3.71,1.21.93-.28.97-.32.14-.97-.93-.7-3.85-.88-3.85-.23Z"/>
    <path class="st0" d="M21.19,96.79c0,.7,1.95,1.9,3.11,1.9,1.3,0,1.39-1.16.19-1.85-1.16-.6-3.29-.6-3.29-.05Z"/>
    <path class="st0" d="M101.04,97.76c-.51,1.25.09,3.01.88,2.55.56-.37.56-2.13-.05-3.01-.32-.56-.51-.46-.83.46Z"/>
    <path class="st0" d="M46.04,97.62c-.32.32.6,1.53,1.16,1.53.23,0,.42-.28.42-.65,0-.7-1.11-1.3-1.58-.88Z"/>
    <path class="st0" d="M31.25,98.27c-.46.28-1.76.42-2.88.32-2.5-.19-2.13.42.46.79,1.44.19,2.13.05,3.01-.65,1.21-1.02.83-1.3-.6-.46Z"/>
    <path class="st0" d="M10.06,98.41c0,.79,1.76,1.67,3.34,1.67,1.85,0,1.9,0,1.07-.93-.56-.6-1.44-.93-2.64-.93-.97,0-1.76.09-1.76.19Z"/>
    <path class="st0" d="M120.75,98.55c-.6.56-.32,1.07.56,1.07,1.3,0,2.41-.51,2.09-.97-.28-.46-2.23-.56-2.64-.09Z"/>
    <path class="st0" d="M139.2,98.6c-1.21.23-2.13,1.02-1.81,1.53.65,1.07,4.36.19,4.36-1.02,0-.42-1.44-.74-2.55-.51Z"/>
    <path class="st0" d="M42.1,99.57c-.93.6,1.02,1.53,2.88,1.34l1.48-.14-1.48-.83c-1.67-.88-1.95-.93-2.88-.37Z"/>
    <path class="st0" d="M105.82,100.68c-.42,1.02-.09,2.88.46,2.78.28-.05.51-.65.6-1.34.19-1.48-.65-2.6-1.07-1.44Z"/>
    <path class="st0" d="M55.83,101.33c-.56.56-.32,2.32.37,2.92.6.51.7.32.7-1.34,0-1.76-.37-2.32-1.07-1.58Z"/>
    <path class="st0" d="M129.98,102.49c.42,2.18,2.97,4.27,2.97,2.46,0-.42-.74-1.44-1.62-2.32l-1.62-1.62.28,1.48Z"/>
    <path class="st0" d="M122.79,102.82c-.46.32-.37.56.46,1.16,1.34.93,2.32.93,3.48.05.74-.6.79-.74.19-1.16-.83-.56-3.25-.6-4.13-.05Z"/>
    <path class="st0" d="M137.21,103.65c.23,1.16,2.5,2.36,3.2,1.67.37-.37.28-.74-.46-1.48-1.21-1.21-2.97-1.3-2.74-.19Z"/>
    <path class="st0" d="M15.48,104.16c-1.07,1.16-.97,1.48.32,1.48,1.62,0,2.55-.46,3.11-1.44.42-.79.28-.88-1.11-.88-.93,0-1.9.32-2.32.83Z"/>
    <path class="st0" d="M22.35,104.02c-1.9.83-.14.88,2.09,0,1.44-.56,1.48-.65.46-.65-.65,0-1.76.28-2.55.65Z"/>
    <path class="st0" d="M42.98,105.51l-1.02,1.3,1.02.14c1.21.19,2.32-.65,2.32-1.81,0-1.3-1.16-1.07-2.32.37Z"/>
    <path class="st0" d="M107.44,105.6c-.7,1.34-.56,1.9.37,1.58.83-.28,1.95-1.48,1.95-2.09,0-.74-1.85-.32-2.32.51Z"/>
    <path class="st0" d="M22.26,106.43c-1.67.83-2.92,2.92-1.72,2.92,1.3,0,2.41-.88,2.88-2.32.28-.74.46-1.39.42-1.34-.05,0-.74.32-1.58.74Z"/>
    <path class="st0" d="M51.33,106.66c0,1.3.79,2.23,1.9,2.23,1.39,0,1.25-.65-.32-1.99l-1.58-1.34v1.11Z"/>
    <path class="st0" d="M113.75,106.02c-.37.6,1.07,2.41,1.85,2.41s.83-.65.19-1.9c-.51-.93-1.62-1.21-2.04-.51Z"/>
    <path class="st0" d="M86.02,110.37c-1.53,6.35-4.64,11.22-11.31,17.76-4.92,4.82-5.56,5.8-6.91,9.97-1.25,3.94-2.27,5.24-5.98,7.84-1.9,1.3-3.57,2.36-3.71,2.36-.6,0-1.76-2.46-2.13-4.5l-.37-2.23-.05,1.99c0,1.07.28,2.74.65,3.66.65,1.53.83,1.62,2.13,1.34,1.76-.32,7.23-3.06,10.16-5.05,5.33-3.62,10.71-9.27,13.54-14.24,1.39-2.46,3.15-7.09,3.15-8.25-.05-.93-2.69,3.11-4.73,7.09-1.72,3.39-6.03,10.02-6.31,9.74-.14-.14.28-1.02.93-1.95,2.18-3.25,3.66-5.75,4.08-7,.7-1.85-4.64,3.99-7.47,8.25-1.25,1.9-2.27,3.25-2.27,3.06,0-1.39,3.52-6.45,7.47-10.76,8.11-8.81,10.39-13.26,10.06-19.62l-.14-2.78-.79,3.29Z"/>
    <path class="st0" d="M27.31,108.06c-.51.65-.7,1.53-.6,2.78.09,1.21.74,1.02,1.34-.32,1.02-2.23.51-3.94-.74-2.46Z"/>
    <path class="st0" d="M34.73,108.06c-1.02,1.02-.56,4.08.65,4.08.46,0,.65-.56.65-1.76,0-2.18-.51-3.11-1.3-2.32Z"/>
    <path class="st0" d="M109.8,108.7c-1.07,1.34-1.3,2.69-.42,2.41,1.07-.37,2.46-2.64,1.9-3.2-.32-.32-.79-.14-1.48.79Z"/>
    <path class="st0" d="M118.57,108.57c0,1.02,1.25,2.64,1.99,2.64.6,0,.32-1.62-.42-2.69-.93-1.34-1.58-1.3-1.58.05Z"/>
    <path class="st0" d="M125.15,107.82c-1.02.19-1.07.23-.23.83.97.79,3.66.88,4.08.19.19-.28.23-.56.14-.7-.37-.32-2.92-.56-3.99-.32Z"/>
    <path class="st0" d="M44.19,109.96c-1.81,1.02-3.15,3.11-1.99,3.11.97,0,2.6-1.39,3.34-2.83.42-.74.65-1.34.6-1.34-.09,0-.97.46-1.95,1.07Z"/>
    <path class="st0" d="M113.75,111.02c-.14.42-.28.88-.28,1.11,0,.51,1.34,1.85,1.9,1.85.7,0,.46-2.18-.32-2.97-.88-.93-.93-.93-1.3,0Z"/>
    <path class="st0" d="M46.23,113.3c-.42.51-.46.88-.09,1.25.65.65,1.48.05,1.48-1.07s-.6-1.16-1.39-.19Z"/>
    <path class="st0" d="M86.2,119.65c-1.76,6.58-3.25,10.06-6.26,14.28-5.15,7.37-14.33,13.73-23.05,16-3.2.83-17.53,3.62-22.86,4.45-1.99.28-3.52.6-3.43.7.23.23,17.62-1.11,21.79-1.67,4.22-.6,9.46-2.23,13.31-4.17,1.53-.79,2.78-1.3,2.78-1.21,0,.51-5.75,3.39-9.51,4.73-4.78,1.76-4.68,1.95.32.7,14.75-3.8,26.99-19.15,28.47-35.75.14-2.04.23-3.71.09-3.71-.09,0-.83,2.55-1.67,5.66Z"/>
    <path class="st0" d="M87.08,127.07c-2.55,7.93-5.56,12.94-10.94,18.22-2.69,2.64-4.87,4.31-7.47,5.66-5.94,3.06-8.63,3.8-14.1,3.8-2.6,0-4.82.09-4.96.19-.09.14,2.27.37,5.29.56,6.35.37,12.15-.46,16.28-2.32,7.56-3.43,14.05-11.41,16.28-19.94.51-2.04,1.25-9.51.88-9.51-.09,0-.65,1.53-1.25,3.34Z"/>
    <path class="st0" d="M88.61,134.16c-.23,1.39-.28,2.55-.09,2.55s.37.32.37.74c0,1.3,2.64,6.35,4.36,8.35,2.97,3.48,9.83,6.21,15.91,6.35,2.41.09,3.06-.09,3.94-.97,1.25-1.21.23-1.48-1.11-.23-.93.83-1.16.19-.37-1.3.7-1.25.14-1.07-1.16.37-1.53,1.85-1.9,1.02-.51-1.16,1.58-2.5,3.43-4.17,5.05-4.54.74-.14,1.21-.37,1.07-.51-.09-.14-.97,0-1.85.32-1.07.32-2.69,1.67-4.45,3.62-1.48,1.67-2.88,2.92-3.06,2.78-.14-.19.14-.88.7-1.58,1.44-1.81,2.36-5.47,2.32-8.95l-.09-3.06-.32,2.78c-.46,3.71-1.21,6.4-2.23,7.65-.79.97-.79.93-.65-1.76.09-1.48-.05-3.43-.28-4.31-.42-1.44-.46-1.3-.42,1.34,0,2.64-1.16,6.58-1.95,6.58-.14,0-.28-1.67-.28-3.66,0-2.13-.23-3.94-.51-4.22-.42-.42-.42-.09-.05,1.3.37,1.44.32,2.23-.19,3.62-.74,1.95-1.85,2.74-1.53,1.02.09-.6.09-.79-.09-.51-.51,1.16-1.62.56-4.73-2.55-3.06-2.97-6.58-8.72-6.58-10.71-.05-2.04-.79-1.62-1.21.65Z"/>
    <path class="st0" d="M55.6,134.07c-.51.56-1.53,2.23-2.23,3.76-1.02,2.27-1.21,3.15-.97,5.56.32,4.03,1.99,7.23,3.2,6.07.14-.14-.28-1.3-.93-2.55-1.99-4.03-1.34-9.92,1.39-12.84.56-.6.88-1.07.74-1.07-.09,0-.65.46-1.21,1.07Z"/>
    <path class="st0" d="M87.5,137.73c0,.32-.65,1.81-1.44,3.29-1.53,2.97-1.53,3.48.51,6.31,1.72,2.32,4.27,3.99,8.49,5.47,4.27,1.48,8.53,1.9,21.66,2.13,10.11.19,10.67.19,7.42-.42-1.9-.32-6.82-.83-10.9-1.11-11.18-.79-14.89-1.85-19.01-5.61-2.5-2.32-5.8-7.84-5.8-9.74,0-.51-.19-.88-.46-.88-.23,0-.46.28-.46.56ZM91.77,148.17c.56.6.88,1.16.74,1.3-.28.28-2.78-2.83-3.76-4.73-1.39-2.64-.83-2.78.65-.14.74,1.39,1.81,3.01,2.36,3.57Z"/>
    <path class="st0" d="M41.36,143.44q-.93.74.09.28c3.06-1.48,7.23.7,10.39,5.47.37.6.93,1.02,1.25.93.79-.28-2.41-4.41-4.45-5.75-2.32-1.53-5.98-1.99-7.28-.93Z"/>
    <path class="st0" d="M82.72,146.5c-1.16,1.48-1.16,1.58-.42,2.88,1.11,1.85,3.62,3.8,7.37,5.52l3.15,1.53,8.58.05c7.56.09,8.02.05,3.94-.28-10.67-.88-17.2-3.8-20.17-8.95l-1.25-2.23-1.21,1.48Z"/>
    <path class="st0" d="M48.55,149.47c.6.65,1.39,1.16,1.76,1.16.56,0,.42-.32-.37-1.16-.6-.65-1.39-1.16-1.76-1.16-.56,0-.42.32.37,1.16Z"/>
    <path class="st0" d="M78.27,150.76c-2.69,2.32-5.61,3.85-8.72,4.68-1.67.42-.51.51,6.72.51,4.78,0,9.92.19,11.45.37l2.78.37-2.92-1.48c-1.62-.79-3.48-2.13-4.17-3.06-.7-.88-1.58-2.04-1.95-2.55-.74-.93-.79-.88-3.2,1.16ZM80.08,154.8c0,.23-.19.46-.42.46-.28,0-.6-.23-.74-.46-.14-.28.05-.46.42-.46.42,0,.74.19.74.46Z"/>
    <path class="st0" d="M65.01,158.04c-.19.32,4.5.42,13.77.37,9.83-.05,12.89-.14,10.11-.42-6.07-.51-23.56-.51-23.88.05Z"/>
  </g>
  <g>
    <path class="st0" d="M182.35,48.01h21.93l15.63,54.31h-19.6l-8.81-47.75h2.85l-7.94,47.75h-20.12l16.06-54.31ZM179.07,80.74h25.9v13.21h-26.08l.17-13.21Z"/>
    <path class="st0" d="M239.34,74.95c3.57.29,7.17.43,10.79.43,1.21,0,2.13-.2,2.76-.6.63-.4,1.08-1.17,1.34-2.29.26-1.12.39-2.83.39-5.14s-.14-4.06-.43-5.27c-.29-1.21-.73-2.04-1.34-2.5-.6-.46-1.48-.69-2.63-.69-3.86,0-8.95.32-15.28.95l-4.58-11.83c2.19-.11,3.77-.17,4.75-.17,5.53-.23,10.42-.35,14.68-.35,6.62,0,11.74.79,15.37,2.37,3.63,1.58,6.1,3.71,7.43,6.39,1.32,2.68,1.99,5.92,1.99,9.71,0,5.93-1.83,10.78-5.48,14.55-3.66,3.77-9.23,5.66-16.71,5.66-4.2,0-9.61-.14-16.23-.43l.09-11.14,3.11.35ZM230.36,48.01l18.65.09v54.23h-18.65v-54.31Z"/>
    <path class="st0" d="M296.5,74.95c3.57.29,7.17.43,10.79.43,1.21,0,2.13-.2,2.76-.6.63-.4,1.08-1.17,1.34-2.29.26-1.12.39-2.83.39-5.14s-.14-4.06-.43-5.27c-.29-1.21-.73-2.04-1.34-2.5-.6-.46-1.48-.69-2.63-.69-3.86,0-8.95.32-15.28.95l-4.58-11.83c2.19-.11,3.77-.17,4.75-.17,5.53-.23,10.42-.35,14.68-.35,6.62,0,11.74.79,15.37,2.37,3.63,1.58,6.1,3.71,7.43,6.39,1.32,2.68,1.99,5.92,1.99,9.71,0,5.93-1.83,10.78-5.48,14.55-3.66,3.77-9.23,5.66-16.71,5.66-4.2,0-9.61-.14-16.23-.43l.09-11.14,3.11.35ZM287.52,48.01l18.65.09v54.23h-18.65v-54.31Z"/>
    <path class="st0" d="M344.68,48.01h36.27l-.69,13.21h-23.49l6.22-6.65v41.1l-6.22-6.56h24.01l.26,13.21h-36.35v-54.31ZM356.77,68.48h21.33v12.95h-21.33v-12.95Z"/>
    <path class="st0" d="M394.25,48.01h18.91v47.67l-6.91-6.65h23.06l.35,13.3h-35.4v-54.31Z"/>
    <path class="st0" d="M453.4,69.94c1.27.06,2.53.12,3.8.17,1.27.06,2.56.09,3.89.09,1.78,0,3.12-.17,4.02-.52.89-.35,1.5-.94,1.81-1.77.32-.83.47-2.09.47-3.76,0-2.3-.39-3.86-1.17-4.66-.78-.81-2.23-1.21-4.36-1.21-3.05,0-7.22.29-12.52.86l-2.68.26-4.4-11.4c7.77-.4,14.45-.6,20.03-.6s10.15.58,13.69,1.73c3.54,1.15,6.14,2.88,7.82,5.18,1.67,2.3,2.5,5.21,2.5,8.72,0,4.89-1.92,8.55-5.74,10.97-3.83,2.42-9.49,3.63-16.97,3.63h-15.46l.09-7.94,5.18.26ZM442.26,48.01l18.39-.09v54.4h-18.39v-54.31ZM451.11,103.02c-2.79-.12-5.74-.35-8.85-.69l4.92-11.05c5.18.81,10.28,1.21,15.28,1.21,1.78,0,3.14-.26,4.06-.78.92-.52,1.54-1.29,1.86-2.33.32-1.04.47-2.42.47-4.15,0-1.61-.23-2.86-.69-3.76-.46-.89-1.18-1.51-2.16-1.86-.98-.35-2.36-.49-4.15-.43-2.99.12-5.24.23-6.74.35-3.17.23-5.47.43-6.91.6l-.26-7.77h17.01c7.2,0,12.89,1.11,17.1,3.32,4.2,2.22,6.3,5.86,6.3,10.92,0,5.53-2.02,9.67-6.04,12.43-4.03,2.76-10.88,4.14-20.55,4.14-4.32,0-7.87-.06-10.66-.17Z"/>
    <path class="st0" d="M504.52,96.02c-4.38-4.95-6.56-11.94-6.56-20.98,0-5.87,1.12-10.92,3.37-15.15,2.25-4.23,5.43-7.45,9.54-9.67,4.12-2.22,8.88-3.32,14.29-3.32,8.17,0,14.43,2.4,18.78,7.21,4.35,4.81,6.52,11.59,6.52,20.34,0,5.81-1.04,10.91-3.11,15.28-2.07,4.38-5.07,7.76-8.98,10.15-3.92,2.39-8.58,3.58-13.99,3.58-8.87,0-15.49-2.47-19.86-7.43ZM527.7,89.46c.78-.75,1.39-2.27,1.86-4.58.46-2.3.69-5.7.69-10.19,0-5.12-.45-8.66-1.34-10.62-.89-1.96-2.38-2.94-4.45-2.94-1.84,0-3.3.94-4.36,2.81-1.07,1.87-1.6,5.54-1.6,11.01,0,4.43.24,7.79.73,10.06.49,2.28,1.17,3.77,2.03,4.49.86.72,1.99,1.08,3.37,1.08,1.27,0,2.29-.37,3.07-1.12Z"/>
    <path class="st0" d="M567.81,96.02c-4.38-4.95-6.56-11.94-6.56-20.98,0-5.87,1.12-10.92,3.37-15.15,2.25-4.23,5.43-7.45,9.54-9.67,4.12-2.22,8.88-3.32,14.29-3.32,8.17,0,14.43,2.4,18.78,7.21,4.35,4.81,6.52,11.59,6.52,20.34,0,5.81-1.04,10.91-3.11,15.28-2.07,4.38-5.07,7.76-8.98,10.15-3.92,2.39-8.58,3.58-13.99,3.58-8.87,0-15.49-2.47-19.86-7.43ZM591,89.46c.78-.75,1.39-2.27,1.86-4.58.46-2.3.69-5.7.69-10.19,0-5.12-.45-8.66-1.34-10.62-.89-1.96-2.38-2.94-4.45-2.94-1.84,0-3.3.94-4.36,2.81-1.07,1.87-1.6,5.54-1.6,11.01,0,4.43.24,7.79.73,10.06.49,2.28,1.17,3.77,2.03,4.49.86.72,1.99,1.08,3.37,1.08,1.27,0,2.29-.37,3.07-1.12Z"/>
    <path class="st0" d="M626.96,48.01h22.88l6.22,24.01c.81,2.94,1.55,6.28,2.25,10.02.29,1.38.56,2.75.82,4.1.26,1.35.53,2.72.82,4.1h-4.75c1.38-6.56,2.79-12.49,4.23-17.79l6.39-24.44h21.5l1.47,54.31h-16.67l.09-46.46h3.28l-11.66,41.45h-14.25l-12.35-42.66h3.63l.69,47.67h-17.1l2.5-54.31Z"/>
  </g>
  <g>
    <path class="st0" d="M169.25,138.55c-1.11-1.89-1.46-4.4-1.07-7.53.42-3.39,1.52-5.92,3.29-7.62,1.78-1.69,4.04-2.54,6.78-2.54.9,0,1.74.08,2.54.25.8.17,1.5.39,2.12.67l-.5,2.48c-1.37-.53-2.7-.8-3.99-.8-2.07,0-3.69.61-4.85,1.83-1.16,1.22-1.91,3.06-2.25,5.52-.28,1.85-.3,3.35-.06,4.51s.73,2.02,1.49,2.58,1.83.84,3.23.84c1.48,0,3.12-.38,4.91-1.13l.17,2.39c-.76.42-1.64.75-2.67,1.01-1.02.25-2.05.38-3.08.38-2.94,0-4.96-.94-6.06-2.83Z"/>
    <path class="st0" d="M196.21,140.12c-1.26-.84-2.15-2.04-2.69-3.61-.53-1.57-.67-3.43-.42-5.58.42-3.27,1.48-5.79,3.19-7.53,1.71-1.75,3.8-2.62,6.3-2.62,1.82,0,3.36.41,4.64,1.22,1.27.81,2.2,1.99,2.77,3.53.57,1.54.73,3.37.48,5.5-.45,3.53-1.5,6.13-3.15,7.83-1.65,1.69-3.82,2.54-6.51,2.54-1.82,0-3.36-.42-4.62-1.26ZM205.26,136.91c1.08-1.19,1.77-3.1,2.08-5.73.34-2.63.05-4.57-.86-5.81-.91-1.24-2.23-1.87-3.97-1.87s-3.06.58-4.15,1.74c-1.09,1.16-1.79,2.97-2.1,5.44-.25,1.9-.22,3.45.1,4.64.32,1.19.88,2.05,1.68,2.58s1.81.8,3.04.8c1.71,0,3.1-.59,4.18-1.78Z"/>
    <path class="st0" d="M225.25,121.07l2.64-.04c-.03.81-.07,1.57-.13,2.27-.06.7-.13,1.47-.21,2.31l.17.25-1.89,15.11h-2.94l1.55-12.67c.31-2.52.57-4.92.8-7.22ZM237.7,125.81c-.1-.76-.38-1.31-.84-1.66-.46-.35-1.17-.52-2.12-.52-1.15,0-2.39.38-3.74,1.15-1.34.77-2.67,1.77-3.99,3l-.46-2.14c1.29-1.48,2.78-2.67,4.49-3.55,1.71-.88,3.33-1.32,4.87-1.32,1.93,0,3.27.6,4.01,1.8.74,1.2.94,3.05.61,5.54l-1.72,12.84h-2.98l1.72-12.04c.2-1.32.24-2.35.15-3.11Z"/>
    <path class="st0" d="M252.28,140.08l.55-2.43c1.73.73,3.47,1.09,5.2,1.09,1.2,0,2.15-.24,2.85-.71.7-.48,1.1-1.18,1.22-2.1.11-.84-.09-1.55-.61-2.14-.52-.59-1.52-1.3-3-2.14-1.59-.89-2.71-1.79-3.34-2.69s-.86-2-.69-3.32c.17-1.46.88-2.63,2.14-3.53,1.26-.9,2.88-1.34,4.87-1.34.95,0,1.86.1,2.73.29.87.2,1.65.45,2.35.76l-.42,2.39c-.76-.28-1.51-.5-2.27-.65-.76-.15-1.55-.23-2.39-.23-1.2,0-2.15.21-2.85.63-.7.42-1.09,1.04-1.18,1.85-.11.78.06,1.43.52,1.95.46.52,1.36,1.13,2.71,1.83,1.82,1.01,3.06,1.99,3.74,2.94.67.95.94,2.1.8,3.44-.2,1.76-.95,3.11-2.27,4.03-1.32.92-2.98,1.38-4.99,1.38s-3.96-.43-5.67-1.3Z"/>
    <path class="st0" d="M279.25,139.6c-.83-1.19-1.07-3.07-.73-5.64l1.59-12.84h2.98l-1.55,12.38c-.25,1.9-.18,3.23.23,3.99.41.76,1.24,1.13,2.5,1.13,1.15,0,2.42-.42,3.82-1.26,1.4-.84,2.67-2,3.82-3.48l.8,1.72c-1.37,2.04-2.9,3.52-4.57,4.43s-3.3,1.36-4.87,1.36c-1.85,0-3.18-.59-4.01-1.78ZM291.1,135.8l1.76-14.69h2.94l-2.48,19.85-2.48.21.25-5.37Z"/>
    <path class="st0" d="M308.96,140.16c-.55-.81-.71-2.03-.48-3.65l2.94-24.09,2.94-.17-2.94,24.05c-.11.92-.06,1.54.17,1.85.22.31.7.46,1.43.46.64,0,1.5-.14,2.56-.42l-.04,2.52c-1.23.45-2.41.67-3.53.67-1.48,0-2.5-.41-3.04-1.22Z"/>
    <path class="st0" d="M328.08,121.11h11.67l-.34,2.52h-11.63l.29-2.52ZM329.82,139.89c-.69-.99-.89-2.58-.61-4.76l2.31-18.89,2.9-.25-2.31,19.05c-.11,1.04-.12,1.81-.02,2.33.1.52.32.88.67,1.09.35.21.89.31,1.62.31.98,0,2.14-.21,3.48-.63l-.04,2.31c-.62.28-1.29.5-2.01.67-.73.17-1.5.25-2.31.25-1.76,0-2.99-.5-3.67-1.49Z"/>
    <path class="st0" d="M350.24,139.83c-.78-1.04-1.08-2.42-.88-4.16.22-1.73.97-3.12,2.22-4.16,1.26-1.03,2.97-1.72,5.12-2.06,1.06-.17,2.24-.29,3.53-.36,1.29-.07,2.53-.09,3.73-.06l-.25,2.35c-1.96-.08-3.99.01-6.09.29-1.74.22-3.04.67-3.9,1.32-.87.66-1.36,1.52-1.47,2.58-.08,1.09.06,1.89.44,2.39.38.5,1.04.75,1.99.75,1.26,0,2.6-.34,4.03-1.03,1.43-.68,2.73-1.67,3.9-2.96l.42,2.01c-1.09,1.4-2.48,2.52-4.18,3.36-1.69.84-3.29,1.26-4.81,1.26-1.76,0-3.04-.52-3.82-1.55ZM361.73,136.89l.97-8.14c.14-1.31.09-2.36-.15-3.13-.24-.77-.69-1.32-1.36-1.66-.67-.34-1.59-.5-2.77-.5-1.76,0-3.81.48-6.13,1.43l-.08-2.43c1.01-.5,2.1-.91,3.29-1.22,1.19-.31,2.38-.46,3.59-.46,2.49,0,4.29.66,5.39,1.97,1.1,1.32,1.5,3.27,1.2,5.88l-1.55,12.34-2.52.21.13-4.28Z"/>
    <path class="st0" d="M380.66,121.07l2.64-.04c-.03.81-.07,1.57-.13,2.27-.06.7-.13,1.47-.21,2.31l.17.25-1.89,15.11h-2.94l1.55-12.67c.31-2.52.57-4.92.8-7.22ZM393.11,125.81c-.1-.76-.38-1.31-.84-1.66-.46-.35-1.17-.52-2.12-.52-1.15,0-2.39.38-3.74,1.15-1.34.77-2.67,1.77-3.99,3l-.46-2.14c1.29-1.48,2.78-2.67,4.49-3.55,1.71-.88,3.33-1.32,4.87-1.32,1.93,0,3.27.6,4.01,1.8.74,1.2.94,3.05.61,5.54l-1.72,12.84h-2.98l1.72-12.04c.2-1.32.24-2.35.15-3.11Z"/>
    <path class="st0" d="M410.02,138.55c-1.11-1.89-1.46-4.4-1.07-7.53.42-3.39,1.52-5.92,3.29-7.62,1.78-1.69,4.04-2.54,6.78-2.54.9,0,1.74.08,2.54.25.8.17,1.5.39,2.12.67l-.5,2.48c-1.37-.53-2.7-.8-3.99-.8-2.07,0-3.69.61-4.85,1.83-1.16,1.22-1.91,3.06-2.25,5.52-.28,1.85-.3,3.35-.06,4.51.24,1.16.73,2.02,1.49,2.58.76.56,1.83.84,3.23.84,1.48,0,3.12-.38,4.91-1.13l.17,2.39c-.76.42-1.64.75-2.67,1.01-1.02.25-2.05.38-3.08.38-2.94,0-4.96-.94-6.06-2.83Z"/>
    <path class="st0" d="M434.8,146.04c1.09-.5,2.04-1.17,2.83-1.99.8-.83,1.48-1.85,2.04-3.08l9.11-19.85h3.11l-9.61,20.23c-.84,1.79-1.76,3.26-2.75,4.41-.99,1.15-2.18,2.06-3.55,2.73-1.37.67-3.05,1.15-5.04,1.43l-.08-2.69c1.54-.28,2.85-.67,3.95-1.17ZM434.89,121.11h2.98l1.8,11.29c.14.87.27,1.58.38,2.14.45,2.99.73,5.16.84,6.5h-2.64l-3.36-19.94Z"/>
  </g>
</svg>