<?xml version="1.0" encoding="UTF-8"?>
<svg id="Layer_1" xmlns="http://www.w3.org/2000/svg" version="1.1" viewBox="0 0 32 32">
  <!-- Generator: Adobe Illustrator 29.3.1, SVG Export Plug-In . SVG Version: 2.1.0 Build 151)  -->
  <defs>
    <style>
      .st0 {
        fill: #d81f31;
      }
    </style>
  </defs>
  <path class="st0" d="M16.96,14.82v-.03s-.01.02-.02.03h.02Z"/>
  <path class="st0" d="M26,0H6C2.7,0,0,2.7,0,6v20C0,29.3,2.7,32,6,32h20c3.3,0,6-2.7,6-6V6C32,2.7,29.3,0,26,0ZM11.63,23.65h-3.43v-10.32h3.43v10.32ZM9.92,11.92h-.02c-1.15,0-1.89-.79-1.89-1.78s.77-1.78,1.94-1.78,1.9.77,1.92,1.78c0,.99-.74,1.78-1.94,1.78ZM24,23.65h-3.43v-5.52c0-1.39-.5-2.33-1.74-2.33-.95,0-1.51.64-1.76,1.26-.09.22-.11.53-.11.84v5.76h-3.43s.04-9.35,0-10.32h3.43v1.46c.46-.7,1.27-1.7,3.09-1.7,2.26,0,3.95,1.47,3.95,4.64v5.92Z"/>
</svg>