<?xml version="1.0" encoding="UTF-8"?>
<svg id="Layer_1" xmlns="http://www.w3.org/2000/svg" version="1.1" viewBox="0 0 28.03 28.03">
  <!-- Generator: Adobe Illustrator 29.3.1, SVG Export Plug-In . SVG Version: 2.1.0 Build 151)  -->
  <defs>
    <style>
      .st0 {
        fill: #d8102f;
      }
    </style>
  </defs>
  <path class="st0" d="M.88,5.34l13.67,9.84,12.59-9.8c.27-.21.58-.31.89-.31v-2.97c0-1.16-.94-2.1-2.1-2.1H2.1C.94,0,0,.94,0,2.1v2.96c.3,0,.61.09.88.28Z"/>
  <path class="st0" d="M15.51,18.24c-.27.21-.6.32-.92.32-.31,0-.61-.09-.88-.28L0,8.41v17.52C0,27.09.94,28.03,2.1,28.03h23.83c1.16,0,2.1-.94,2.1-2.1V8.48l-12.52,9.75Z"/>
</svg>