<?xml version="1.0" encoding="UTF-8"?>
<svg id="Layer_1" xmlns="http://www.w3.org/2000/svg" version="1.1" viewBox="0 0 448 448">
  <!-- Generator: Adobe Illustrator 29.3.1, SVG Export Plug-In . SVG Version: 2.1.0 Build 151)  -->
  <defs>
    <style>
      .st0 {
        fill: #d8102f;
      }
    </style>
  </defs>
  <path class="st0" d="M400,0H48C21.49,0,0,21.49,0,48v352c0,26.51,21.49,48,48,48h352c26.51,0,48-21.49,48-48V48c0-26.51-21.49-48-48-48ZM383.61,307.37l-15,65c-1.57,6.8-7.63,11.63-14.61,11.63-160,0-290-129.71-290-290,.24-6.9,4.96-12.83,11.63-14.61l65-15c1.11-.23,2.24-.37,3.37-.39,5.91.3,11.19,3.78,13.79,9.09l30,70c.73,1.89,1.14,3.89,1.21,5.91-.24,4.44-2.22,8.61-5.5,11.61l-37.89,31c22.96,48.66,62.12,87.82,110.78,110.78l31-37.89c3-3.28,7.17-5.26,11.61-5.5,2.02.07,4.02.47,5.91,1.21l70,30c5.31,2.6,8.8,7.88,9.09,13.79-.02,1.13-.15,2.26-.39,3.37Z"/>
</svg>